<svg fill="none" height="108" viewBox="0 0 95 108" width="95" xmlns="http://www.w3.org/2000/svg"><path d="m92.6483 66.8628c.3487-.7827-3.4343-1.8352-3.5685-2.6448-.1341-.8366 4.9905-.3508 5.2319-1.0525.483-1.2684-5.5538-.8636-5.366-1.4573s6.3856-1.3494 5.8221-2.4559c-.5366-1.1334-6.3319 1.4304-6.4392.7017-.0805-.7287 5.6075-1.8891 5.6612-3.4814.0268-.8366-9.4979 3.2385-10.4906 2.6718-.9927-.5668 1.583-4.264.8049-4.9387s-4.105 7.0707-4.7221 7.3136c-.5903.2159-13.6566 4.21-18.1104 4.8577-.3756-1.5113-3.7026-9.8504-4.0245-11.2537-2.6025 1.4843-5.9295-.2969-8.6125 1.0255 1.3415 4.7767 4.3733 20.4564 5.5807 21.1851 3.6757 2.1589 22.9934-8.1232 26.1862-9.9314 3.1928-1.8081 4.8294-.9445 6.9222-1.4033 2.0659-.5128 4.7489 1.6462 5.1246.8636z" fill="#c66d14"/><path clip-rule="evenodd" d="m60.7807 108h-34.9368c2.3949-7.632 7.8316-15.5802 7.8316-15.5802l24.7642-3.1306-.939 5.2896 1.4756.2698s1.366 6.2774 1.8044 13.1514z" fill="#e6411d" fill-rule="evenodd"/><path d="m58.2787 20.6335c.9659-4.453 1.9318-8.9059-.6439-13.79057-2.0659-3.94016-5.6612-6.234081-9.793-6.719853-11.7784-1.403347-9.2564 9.607493-25.6765 12.009323-5.0977.7557-9.8466 1.4574-14.11264 4.0212-7.700262 4.5878-10.59792 11.9823-5.50019 24.0457 12.50283 29.4972 42.39163 3.8592 46.95283-1.3494 4.5343-5.1815 8.1295-15.3558 8.7734-18.2164z" fill="#000"/><path d="m39.7659 34.6399s-5.9294.6747-9.471 4.5609c-3.5416 3.8861 5.7416 35.1105 6.3856 40.0492.6439 4.9387-6.171 18.6212-6.171 18.6212s23.1813 4.6418 29.1913.6208c0 0 .5366-38.2141-.1074-41.7225-.6439-3.5353-6.0368-17.8926-7.3246-19.2959-1.2879-1.4034-12.5029-2.8337-12.5029-2.8337z" fill="#e6411d"/><path d="m42.7708 22.6035s-.0536.2699-.1341.7287c-.4025 2.159-1.9318 9.3376-2.9782 11.3347-1.261 2.3748 4.2929 9.9853 9.6589 9.0677 1.583-.2699-1.3415-6.9897-1.2074-7.6914.2683-1.3493.644-3.2115 1.0196-5.1276.2146-1.0795.4293-2.159.6171-3.1845.5634-2.9146 1.0463-5.2895 1.0463-5.2895z" fill="#d5791d"/><path d="m42.6367 23.3322c.0805-.4588.1342-.7287.1342-.7287l8.0222-.1889s-.4561 2.3749-1.0464 5.2895c-.1878 1.0256-.4024 2.1051-.6171 3.1576-1.2342-.189-2.522-.7827-3.8367-1.9161-1.422-1.2415-2.3342-2.7258-2.8976-4.345.0805-.4858.1609-.9446.2414-1.2684z" fill="#a83f1b" opacity=".5"/><path d="m47.5735 3.44252s-3.2732.45878-5.6343 3.53534c-2.361 3.07654-4.9367 12.60304.9659 17.75764 5.8758 5.1816 11.6979-.6746 12.5565-6.8817.8854-6.2341.6976-14.65417-7.8881-14.41128z" fill="#d4791d"/><path d="m57.1787 16.3155c-.3757 1.4843-1.3416 2.5098-2.1733 2.2669s-1.2073-1.6732-.8317-3.1575 1.3415-2.5098 2.1732-2.267c.8317.2429 1.2074 1.6463.8318 3.1576z" fill="#c66d14"/><path d="m51.2224 3.46949s-7.7002 8.87881-11.2955 9.31061c-3.622.4048-4.0781 5.2356-4.0781 5.2356s1.2878-11.09183 4.883-13.22383c3.5416-2.15899 10.4906-1.32238 10.4906-1.32238z" fill="#000"/><path d="m41.1073 14.9121c.2952 1.6193-.2951 3.0766-1.3146 3.2925-1.0196.2159-2.0928-.9176-2.3879-2.5368-.2952-1.6193.2951-3.0766 1.3147-3.2925 1.0195-.1889 2.0927.9446 2.3878 2.5368z" fill="#c66d14"/><path d="m44.0319 61.4653 23.369 4.291-5.5538 30.5767-23.3691-4.291z" fill="#bed9ea"/><path d="m42.5026 62.4908 23.5032 3.4544-4.4806 30.7386-23.4764-3.4544z" fill="#c5dbea"/><path d="m40.4904 63.6243 23.5569 2.9956-3.8636 30.8466-23.5569-2.9956z" fill="#d7ebf2"/><path d="m51.8395 21.0922-5.5807-.3508s0 2.132 2.4415 2.3749c3.005.2429 3.1392-2.0241 3.1392-2.0241z" fill="#fff"/><path d="m23.5606 68.509 9.0149.9176s-.1341 7.6914 0 8.582c0 0 15.4005 4.291 21.8398 5.4514 0 0 2.9245-1.6732 4.105-2.2129 1.1805-.5398 4.3733-1.1065 5.0709-1.2145.6976-.0809.4561.6747-.1341.9446-.6171.2699-2.1733 1.0255-2.6026 1.9161 0 0 1.261.1349 1.9318-.1619.6708-.2969 1.6098-.9446 1.6098-1.2684.0268-.3239.161-1.1335.3756-1.0795.0537 0 .1342.2698.2147.5397s.161.5398.2146.7827c.1073.4587.2415 1.1604.2951 1.4573.1074.7017-.3219 2.6447-.3756 3.3464-.1073 1.2684-.4561 1.8351-1.1268 2.132-1.0733.3778-2.2001.6207-3.8636.7826-3.0586.3239-5.8758-.5667-7.11-.7016-1.2342-.135-20.8202-2.105-20.8202-2.105s-7.7807-1.1335-8.3174-2.4829c-.5366-1.2684-.3219-15.6257-.3219-15.6257z" fill="#d4791d"/><path d="m31.3681 38.0673s-2.844 1.3493-5.3392 7.2056c-2.3611 5.5864-2.4952 33.2484-2.4952 33.2484l8.8539-1.4843 4.7758-12.9539c3.4075-7.7454 2.5221-16.7592-2.4415-23.6139-1.3147-1.8082-2.5489-2.9147-3.3538-2.4019z" fill="#e6411d"/></svg>
