<svg fill="none" height="121" viewBox="0 0 100 121" width="100" xmlns="http://www.w3.org/2000/svg"><path d="m22.9416 52.6143c-.8851-1.7006 19.1911-7.8417 19.5113 8.9755 0 0 37.61-.9259 19.6619-21.9569-6.215-7.2748-5.5746-13.3026-5.3863-18.9146.1883-5.6121-3.8797-21.9002-17.7974-20.256271 0 0-3.6537-1.492769-8.1925.888101-10.3583 5.36639-33.542 57.46197-7.797 51.26417z" fill="#070707"/><path d="m84.432 71.3965s2.4483-3.7414 4.4258-3.8169c1.9775-.0756 5.6311-1.096 5.3298-.3591-.3013.737-2.5613.8125-2.7685 1.2472-.226.4346 3.3712 1.0959 4.3882 1.1715s3.4276 0 3.3711.5102c-.0753.5102-4.3504 2.6454-7.3638 2.343-3.0133-.3023-6.7423.8881-6.7423.8881z" fill="#ffae73"/><path d="m85.5431 75.6863s-5.1414 7.0103-11.9779 10.0525c0 0 0 0-.0189 0-2.4106 1.0771-5.0473 1.6628-7.7404 1.266-1.9587-.2834-3.7667-.9825-5.424-1.9273-3.1263-1.7762-5.6876-4.4027-7.5898-6.7836-.565-.718-1.0923-1.4172-1.5255-2.0596-1.4313-2.0786-2.2035-3.628-2.2035-3.628l1.7327-29.8553s6.2338 1.4549 8.0606 4.2326c1.8268 2.7966 9.492 24.9613 10.8103 25.6227 1.3183.6613 15.1231-2.4565 15.1231-2.4565s1.9587 2.2297.7533 5.5365z" fill="#fbe5e7"/><path d="m60.3631 85.0777c-3.1263-1.7762-5.6876-4.4027-7.5898-6.7836-.565-.718-1.0923-1.4172-1.5255-2.0596 1.2995-6.1978 3.2205-14.7009 2.8062-9.3156-.5462 6.9914 4.8966 15.948 6.3091 18.1588z" fill="#78a2dc"/><path d="m16.2936 106.562c4.8778-10.9597 7.8534-14.1153 7.2884-17.5165-.4143-2.532 1.2995-47.2205 1.2995-47.2205.5839-.189 1.7327-.3401 2.373-.4913 1.9963-.4535 3.6537-1.8518 4.3505-3.7981.8287-2.3241 1.4878-5.7632 1.469-10.0903l.6215.1323 10.4901 2.0785s-.2448 3.3068-.2448 6.4435v.0756c-.0189 2.7209 1.7515 5.1018 4.3505 5.8576 1.3183.378 2.4859.7181 2.4859.7181s3.8609 11.0351 4.5954 22.3915c.7345 11.3374-7.006 16.2692.0565 38.9446 7.1943 23.128-41.8287 8.522-39.1355 2.475z" fill="#ffae73"/><path d="m44.1857 29.6562s-.2449 3.3067-.2449 6.4434c-5.8759-.1701-8.9834-5.5364-10.2452-8.522z" fill="#f48f4e"/><path d="m46.1439 32.6226s-13.8989.2267-13.8989-8.4464c-.0189-8.6921-1.808-14.51197 7.0624-15.02215 8.8705-.51019 10.6031 2.79655 11.3 5.68765.6968 2.891-.8475 17.4974-4.4635 17.7809z" fill="#ffae73"/><path d="m45.6168 8.92711s-3.8043 10.18479-9.6426 11.69649-8.3808-.0567-8.3808-.0567 4.5011-3.5713 5.424-9.8069c0 0 9.7367-6.67021 12.5994-1.83289z" fill="#000"/><path d="m44.6753 9.75867s2.825 1.05813 3.9738 3.11783c1.13 2.0218 2.1093 4.6861 1.8833 7.974 0 0 2.8627-6.9348-.3578-10.8462-3.4088-4.15705-5.4993-.24563-5.4993-.24563z" fill="#000"/><path d="m43.1121 27.2378s.9605 1.266 2.8815 1.1715c1.5443-.0756 2.1469-1.4171 2.1469-1.4171s-2.8438-.6992-5.0284.2456z" fill="#e8f2fa"/><path d="m14.9564 61.5894s-.3578 4.9885 0 10.9784c.226 3.9681 4.2375 9.2967 4.8025 10.6005 1.4313 3.3068 3.0321 3.8359 3.0321 3.8359l12.43 3.0611 4.3693 1.0771 13.7859-4.1382s6.2715-17.592 3.7666-27.4934c-2.5236-9.9013-6.3656-16.7794-6.3656-16.7794s-11.2434 11.054-25.8957-.9448z" fill="#fbe5e7"/><path d="m18.5914 74.1747c.226 3.9681.6027 7.6717 1.1677 8.9755 1.4313 3.3068 3.0321 3.8358 3.0321 3.8358l12.43 3.0611 5.4051-1.5872s-18.0234-2.7399-16.0271-18.31z" fill="#f8caa4"/><path d="m52.5097 89.6689s6.8364 21.3141 7.2696 28.5891c.4331 7.256-13.0515 103.133-13.5976 106.478-.5085 3.155-4.407 5.158-4.407 5.158s-1.7892 1.059-4.3505.34c-3.5595-1.001-4.6706-2.21-4.6706-2.21s-5.311-68.384-2.034-92.797c3.2958-24.433 3.3335-45.5392 3.3335-45.5392h18.4566z" fill="#e65924"/><path d="m23.5817 89.0454s-10.4148 14.0206-11.3941 23.5066c-.9794 9.485-1.5255 42.761-3.59719 52.001-2.07166 9.24-9.66145 27.021-9.66145 55.837 0 0 .790991 1.644 3.22048 2.532.77216.283 1.82682.548 2.84382.793 2.01516.454 4.06798-.529 4.99081-2.38 5.14143-10.374 21.50753-43.857 22.33623-50.811.6027-4.913 5.763-37.47 17.0252-56.574 2.712-4.592-1.6573-22.8261-1.6573-22.8261z" fill="#e65924"/><path d="m43.432 27.4641s.2448 1.0203 2.7873.8691c0 0 2.1282-.1322 2.0717-1.266-.0188 0-2.0905-.7936-4.859.3969z" fill="#fff"/><path d="m53.6023 86.3809s-2.7496 2.173-8.1925 2.2863c-6.4974.1323-22.6187-1.6628-22.6187-1.6628s-.7156 2.003-.678 4.1193c0 0 19.6808 4.9885 31.0937.718-.0188.0189 1.4502-2.7587.3955-5.4608z" fill="#1e3865"/><path d="m43.9973 90.9162c0-1.8518 1.3372-3.3635 2.9757-3.3635s2.9756 1.5117 2.9756 3.3635-1.3371 3.3634-2.9756 3.3634c-1.6385.0189-2.9757-1.4927-2.9757-3.3634zm.9982 0c0 1.3227.8851 2.3808 1.9775 2.3808 1.0923 0 1.9775-1.077 1.9775-2.3808 0-1.3227-.8852-2.3809-1.9775-2.3809-1.0924 0-1.9775 1.0771-1.9775 2.3809z" fill="#fff"/><path d="m1.59394 90.2261 20.16976 17.6209 24.043-27.7046-20.1698-17.6206z" fill="#2c2b27"/><path d="m27.3485 90.311s7.3826.8692 7.3638 2.6266c-.0188 1.7573-1.8457 5.3664-2.7497 5.5365-.904.1511-6.0078-4.8941-6.0078-4.8941z" fill="#ffae73"/><path d="m24.8624 41.8057s-9.8687.6991-13.6541 9.9202c-3.78552 9.2212-10.960986 24.7157-10.960986 27.3233s4.011486 10.6383 25.537886 15.2489c0 0 2.2223-2.3431 2.0905-4.2138 0 0-13.4281-11.5831-13.4093-12.9247.0753-2.5509 2.2035-5.9332 13.9931-17.7809 3.2393-3.2312-3.5971-17.573-3.5971-17.573z" fill="#fbe5e7"/></svg>
