<svg width="16" height="17" viewBox="0 0 16 17" fill="none" xmlns="http://www.w3.org/2000/svg">
<path d="M1.19531 9.44531C1.54688 9.79688 2.07422 9.76172 2.42578 9.44531L6.46875 5.19141V15.2812C6.46875 15.7734 6.82031 16.125 7.3125 16.125H8.4375C8.89453 16.125 9.28125 15.7734 9.28125 15.2812V5.19141L13.2891 9.41016C13.6406 9.76172 14.168 9.76172 14.5195 9.44531L15.293 8.67188C15.6094 8.32031 15.6094 7.79297 15.293 7.47656L8.4375 0.621094C8.12109 0.304688 7.59375 0.304688 7.27734 0.621094L0.421875 7.47656C0.105469 7.79297 0.105469 8.32031 0.421875 8.67188L1.19531 9.44531Z" fill="black"/>
</svg>
