<svg width="569" height="466" viewBox="0 0 569 466" fill="none" xmlns="http://www.w3.org/2000/svg">
<g filter="url(#filter0_d)">
<path d="M229.338 233H339.174V226.639H312.282L310.554 209.604H388.962C388.962 209.604 395.334 210.359 395.334 203.459V55.967C395.334 55.967 395.982 48.8512 390.906 48.8512H296.514H178.254C173.286 48.8512 173.826 55.967 173.826 55.967V203.459C173.826 210.251 180.198 209.604 180.198 209.604H258.606L256.878 226.639H229.986V233H339.822" fill="#FFF6F6"/>
<path d="M383.83 57.6327H186.194C183.984 57.6327 182.194 59.4236 182.194 61.6327V170.839C182.194 173.048 183.984 174.839 186.194 174.839H383.83C386.039 174.839 387.83 173.048 387.83 170.839V61.6327C387.83 59.4236 386.039 57.6327 383.83 57.6327Z" fill="#FFF6F6" stroke="#EC5732" stroke-width="4" stroke-miterlimit="10"/>
<path d="M379.998 67.6111H190.134V161.626H379.998V67.6111Z" fill="white"/>
<path d="M199.205 65.1313C199.861 65.1313 200.393 64.6003 200.393 63.9454C200.393 63.2904 199.861 62.7594 199.205 62.7594C198.549 62.7594 198.017 63.2904 198.017 63.9454C198.017 64.6003 198.549 65.1313 199.205 65.1313Z" fill="#EC5732"/>
<path d="M194.886 65.1313C195.542 65.1313 196.074 64.6003 196.074 63.9454C196.074 63.2904 195.542 62.7594 194.886 62.7594C194.229 62.7594 193.698 63.2904 193.698 63.9454C193.698 64.6003 194.229 65.1313 194.886 65.1313Z" fill="#EC5732"/>
<path d="M190.566 65.1313C191.222 65.1313 191.754 64.6003 191.754 63.9454C191.754 63.2904 191.222 62.7594 190.566 62.7594C189.91 62.7594 189.378 63.2904 189.378 63.9454C189.378 64.6003 189.91 65.1313 190.566 65.1313Z" fill="#EC5732"/>
<path d="M298.134 205.938H271.998C271.026 205.938 270.162 205.184 270.162 204.105C270.162 203.135 270.918 202.273 271.998 202.273H298.134C299.106 202.273 299.97 203.027 299.97 204.105C299.862 205.184 299.106 205.938 298.134 205.938Z" fill="#EC5732"/>
<g clip-path="url(#clip0)">
<path d="M264.546 95.104C265.918 95.104 267.03 93.9938 267.03 92.6243C267.03 91.2547 265.918 90.1445 264.546 90.1445C263.174 90.1445 262.062 91.2547 262.062 92.6243C262.062 93.9938 263.174 95.104 264.546 95.104Z" stroke="#1E2C78" stroke-miterlimit="10"/>
<path d="M269.73 105.993C270.028 105.993 270.27 105.752 270.27 105.454C270.27 105.157 270.028 104.915 269.73 104.915C269.431 104.915 269.19 105.157 269.19 105.454C269.19 105.752 269.431 105.993 269.73 105.993Z" fill="#1E2C78"/>
<path d="M257.418 113.54V117.422H261.846V113.54H266.382V117.422H270.27L270.702 113.54C270.702 113.54 273.942 111.276 274.158 109.551H276.642V104.376H273.726C273.726 104.376 271.998 100.064 264.546 100.064C257.094 100.064 254.502 104.484 254.502 104.484V110.09L257.418 113.54Z" stroke="#1E2C78" stroke-miterlimit="10" stroke-linecap="round" stroke-linejoin="round"/>
<path d="M254.394 107.287C254.394 107.287 251.802 107.826 251.802 104.7V103.729" stroke="#1E2C78" stroke-miterlimit="10" stroke-linecap="round" stroke-linejoin="round"/>
<path d="M268.326 100.495C268.326 100.495 268.434 98.015 272.862 98.015L272.214 102.543" stroke="#1E2C78" stroke-miterlimit="10" stroke-linecap="round" stroke-linejoin="round"/>
<path d="M260.442 96.6134C261.814 96.6134 262.926 95.5032 262.926 94.1337C262.926 92.7641 261.814 91.6539 260.442 91.6539C259.07 91.6539 257.958 92.7641 257.958 94.1337C257.958 95.5032 259.07 96.6134 260.442 96.6134Z" stroke="#1E2C78" stroke-miterlimit="10"/>
<path d="M260.874 103.406H266.058" stroke="#1E2C78" stroke-miterlimit="10" stroke-linecap="round" stroke-linejoin="round"/>
</g>
<path d="M334.422 102.759L347.814 109.443L360.126 102.759L347.274 96.0744L334.422 102.759Z" stroke="#1E2C78" stroke-miterlimit="10" stroke-linecap="round" stroke-linejoin="round"/>
<path d="M360.126 109.983V102.759L356.886 104.484V112.57L347.274 116.991L338.526 112.786V104.807" stroke="#1E2C78" stroke-miterlimit="10" stroke-linecap="round" stroke-linejoin="round"/>
<g clip-path="url(#clip1)">
<path d="M313.794 116.667C312.822 117.314 311.634 117.637 310.446 117.637C306.774 117.637 303.858 114.726 303.858 111.061C303.858 107.395 306.774 104.484 310.446 104.484C314.118 104.484 317.034 107.395 317.034 111.061C317.034 112.354 316.71 113.54 316.062 114.511L317.034 117.53L313.794 116.667Z" stroke="#1E2C78" stroke-miterlimit="10" stroke-linecap="round" stroke-linejoin="round"/>
<path d="M298.998 110.845C300.294 111.6 301.698 112.031 303.318 112.031C307.854 112.031 311.634 108.365 311.634 103.729C311.634 99.0932 307.962 95.4275 303.318 95.4275C298.674 95.4275 295.002 99.201 295.002 103.837C295.002 105.454 295.434 106.964 296.298 108.257L295.002 112.139L298.998 110.845Z" fill="white" stroke="#1E2C78" stroke-miterlimit="10" stroke-linecap="round" stroke-linejoin="round"/>
<path d="M302.233 104.98C302.233 104.504 302.287 104.13 302.394 103.857C302.501 103.58 302.676 103.341 302.916 103.139C303.157 102.937 303.34 102.753 303.463 102.587C303.59 102.418 303.654 102.232 303.654 102.03C303.654 101.539 303.442 101.293 303.019 101.293C302.824 101.293 302.666 101.365 302.545 101.508C302.425 101.651 302.361 101.845 302.355 102.089H300.705C300.711 101.438 300.916 100.932 301.32 100.57C301.723 100.206 302.29 100.024 303.019 100.024C303.745 100.024 304.306 100.191 304.704 100.527C305.104 100.862 305.304 101.339 305.304 101.957C305.304 102.227 305.25 102.473 305.143 102.695C305.036 102.916 304.863 103.142 304.625 103.373L304.064 103.896C303.904 104.049 303.794 104.207 303.732 104.369C303.67 104.529 303.636 104.732 303.629 104.98H302.233ZM302.033 106.464C302.033 106.223 302.119 106.026 302.291 105.873C302.467 105.717 302.685 105.639 302.946 105.639C303.206 105.639 303.423 105.717 303.595 105.873C303.771 106.026 303.859 106.223 303.859 106.464C303.859 106.705 303.771 106.904 303.595 107.06C303.423 107.213 303.206 107.289 302.946 107.289C302.685 107.289 302.467 107.213 302.291 107.06C302.119 106.904 302.033 106.705 302.033 106.464Z" fill="#1E2C78"/>
</g>
<path d="M223.181 107.395C224.477 107.395 224.369 106.532 224.369 106.532C224.369 106.532 224.369 102.328 224.369 101.034C224.369 99.7401 223.181 99.9557 223.181 99.9557H214.325C214.325 99.9557 213.137 99.7401 213.137 101.034C213.137 102.328 213.137 106.532 213.137 106.532C213.137 106.532 213.029 107.395 214.325 107.395H223.181Z" stroke="#1E2C78" stroke-miterlimit="10" stroke-linecap="round" stroke-linejoin="round"/>
<path d="M213.138 102.759H224.262" stroke="#1E2C78" stroke-miterlimit="10" stroke-linecap="round" stroke-linejoin="round"/>
<path d="M216.701 99.8479C216.701 99.8479 216.377 98.015 218.537 98.015H219.077C221.129 98.015 220.913 99.8479 220.913 99.8479" stroke="#1E2C78" stroke-miterlimit="10" stroke-linecap="round" stroke-linejoin="round"/>
<path d="M217.782 102.759L218.43 104.376H219.186L219.726 102.759" stroke="#1E2C78" stroke-miterlimit="10" stroke-linecap="round" stroke-linejoin="round"/>
<path d="M218.754 113.109C224.062 113.109 228.366 108.813 228.366 103.514C228.366 98.2141 224.062 93.918 218.754 93.918C213.445 93.918 209.142 98.2141 209.142 103.514C209.142 108.813 213.445 113.109 218.754 113.109Z" stroke="#1E2C78" stroke-miterlimit="10" stroke-linecap="round" stroke-linejoin="round"/>
<path d="M223.83 111.815L231.498 119.362L234.414 116.451L226.638 109.12" stroke="#1E2C78" stroke-miterlimit="10" stroke-linecap="round" stroke-linejoin="round"/>
<rect x="245.369" y="135.714" width="73.8844" height="14.9528" rx="7.4764" fill="#1E2C78"/>
<path d="M274.146 144.742H271.668L271.149 146.232H269.994L272.411 139.833H273.408L275.83 146.232H274.669L274.146 144.742ZM271.98 143.846H273.834L272.907 141.191L271.98 143.846ZM279.039 145.467C279.306 145.467 279.527 145.39 279.703 145.234C279.878 145.079 279.972 144.887 279.984 144.659H280.99C280.979 144.955 280.886 145.231 280.713 145.489C280.541 145.744 280.306 145.946 280.01 146.096C279.714 146.245 279.395 146.32 279.052 146.32C278.387 146.32 277.86 146.104 277.47 145.674C277.081 145.243 276.886 144.648 276.886 143.89V143.78C276.886 143.056 277.079 142.477 277.466 142.044C277.853 141.607 278.38 141.389 279.048 141.389C279.613 141.389 280.073 141.555 280.428 141.886C280.785 142.214 280.973 142.646 280.99 143.182H279.984C279.972 142.91 279.878 142.686 279.703 142.51C279.53 142.334 279.309 142.246 279.039 142.246C278.693 142.246 278.427 142.372 278.239 142.624C278.052 142.873 277.957 143.252 277.954 143.762V143.934C277.954 144.449 278.046 144.834 278.231 145.089C278.418 145.341 278.688 145.467 279.039 145.467ZM284.38 145.467C284.647 145.467 284.868 145.39 285.044 145.234C285.219 145.079 285.313 144.887 285.325 144.659H286.331C286.32 144.955 286.227 145.231 286.054 145.489C285.882 145.744 285.647 145.946 285.351 146.096C285.055 146.245 284.736 146.32 284.393 146.32C283.728 146.32 283.201 146.104 282.811 145.674C282.422 145.243 282.227 144.648 282.227 143.89V143.78C282.227 143.056 282.42 142.477 282.807 142.044C283.194 141.607 283.721 141.389 284.389 141.389C284.954 141.389 285.414 141.555 285.769 141.886C286.126 142.214 286.314 142.646 286.331 143.182H285.325C285.313 142.91 285.219 142.686 285.044 142.51C284.871 142.334 284.65 142.246 284.38 142.246C284.034 142.246 283.768 142.372 283.58 142.624C283.393 142.873 283.298 143.252 283.295 143.762V143.934C283.295 144.449 283.387 144.834 283.571 145.089C283.759 145.341 284.029 145.467 284.38 145.467ZM289.862 146.32C289.185 146.32 288.636 146.107 288.214 145.683C287.795 145.255 287.585 144.686 287.585 143.977V143.846C287.585 143.371 287.676 142.948 287.858 142.576C288.042 142.201 288.3 141.909 288.631 141.701C288.962 141.493 289.331 141.389 289.739 141.389C290.386 141.389 290.886 141.596 291.237 142.009C291.592 142.422 291.769 143.006 291.769 143.762V144.193H288.662C288.694 144.585 288.825 144.896 289.053 145.124C289.284 145.353 289.575 145.467 289.923 145.467C290.412 145.467 290.811 145.269 291.118 144.874L291.694 145.423C291.504 145.707 291.249 145.929 290.93 146.087C290.613 146.242 290.257 146.32 289.862 146.32ZM289.734 142.246C289.441 142.246 289.204 142.349 289.022 142.554C288.844 142.759 288.729 143.044 288.68 143.411H290.714V143.331C290.691 142.974 290.596 142.705 290.429 142.523C290.262 142.338 290.03 142.246 289.734 142.246ZM289.976 139.482H291.193L289.976 140.813H289.119L289.976 139.482ZM293.032 143.819C293.032 143.087 293.202 142.499 293.541 142.057C293.881 141.612 294.337 141.389 294.908 141.389C295.412 141.389 295.819 141.565 296.13 141.916V139.482H297.198V146.232H296.231L296.178 145.74C295.859 146.126 295.433 146.32 294.899 146.32C294.343 146.32 293.892 146.096 293.546 145.647C293.203 145.199 293.032 144.59 293.032 143.819ZM294.1 143.912C294.1 144.395 294.192 144.773 294.376 145.045C294.564 145.315 294.829 145.45 295.172 145.45C295.608 145.45 295.928 145.255 296.13 144.865V142.835C295.934 142.454 295.617 142.264 295.181 142.264C294.835 142.264 294.568 142.401 294.381 142.677C294.193 142.949 294.1 143.361 294.1 143.912ZM301.036 146.32C300.359 146.32 299.81 146.107 299.388 145.683C298.969 145.255 298.759 144.686 298.759 143.977V143.846C298.759 143.371 298.85 142.948 299.032 142.576C299.216 142.201 299.474 141.909 299.805 141.701C300.136 141.493 300.505 141.389 300.913 141.389C301.56 141.389 302.06 141.596 302.411 142.009C302.766 142.422 302.943 143.006 302.943 143.762V144.193H299.836C299.868 144.585 299.999 144.896 300.227 145.124C300.459 145.353 300.749 145.467 301.097 145.467C301.586 145.467 301.985 145.269 302.293 144.874L302.868 145.423C302.678 145.707 302.423 145.929 302.104 146.087C301.787 146.242 301.431 146.32 301.036 146.32ZM300.908 142.246C300.615 142.246 300.378 142.349 300.196 142.554C300.018 142.759 299.903 143.044 299.854 143.411H301.888V143.331C301.865 142.974 301.77 142.705 301.603 142.523C301.436 142.338 301.204 142.246 300.908 142.246ZM306.895 142.453C306.755 142.429 306.61 142.417 306.46 142.417C305.971 142.417 305.641 142.605 305.471 142.98V146.232H304.403V141.477H305.423L305.449 142.009C305.707 141.596 306.065 141.389 306.522 141.389C306.674 141.389 306.8 141.41 306.9 141.451L306.895 142.453Z" fill="white"/>
<path d="M266.471 143.983C266.666 143.788 266.666 143.471 266.471 143.276L263.289 140.094C263.094 139.899 262.777 139.899 262.582 140.094C262.387 140.29 262.387 140.606 262.582 140.801L265.41 143.63L262.582 146.458C262.387 146.653 262.387 146.97 262.582 147.165C262.777 147.361 263.094 147.361 263.289 147.165L266.471 143.983ZM258.201 144.13H266.118V143.13H258.201V144.13Z" fill="white"/>
<path d="M513 309H58V379H513V309Z" fill="#FFF6F6"/>
<path d="M490.047 283.316H81.9136V300.901H490.047V283.316Z" fill="#FFF6F6"/>
<path d="M100.169 276.709V257.099H471.258L471.578 276.709H100.169Z" fill="#FFF6F6"/>
<path d="M453.003 233.439H118.318V251.237H453.003V233.439Z" fill="#FFF6F6"/>
<path d="M295.499 251.171L230.724 233.347H453.305V251.171L471.563 257.257V276.82L489.822 283.341V300.73L512.862 308.99V379.153H453.305L363.751 308.99L342.884 301.164L329.407 283.341L318.539 276.82L307.236 257.257L295.499 251.171Z" fill="#FFF0F0"/>
<path d="M58 308.894L81.9137 300.901H490.794L513 308.894H58Z" fill="#EC5732"/>
<path d="M81.9136 283.316L100.169 276.709H471.578L490.047 283.316H81.9136Z" fill="#EC5732"/>
<path d="M100.169 257.099L118.318 251.237H453.216L471.258 257.099H100.169Z" fill="#EC5732"/>
</g>
<rect x="199" y="1" width="160" height="28" fill="#FFF6F6"/>
<rect x="15" y="22" width="146" height="28" fill="#FFF6F6"/>
<rect x="87" y="78" width="69" height="28" fill="#FFF6F6"/>
<rect x="61" y="136" width="90" height="28" fill="#FFF6F6"/>
<rect x="416" y="137" width="133" height="28" fill="#FFF6F6"/>
<rect x="416" y="80" width="133" height="28" fill="#FFF6F6"/>
<rect x="416" y="23" width="110" height="28" fill="#FFF6F6"/>
<path d="M449.921 377.223C450.128 377.223 450.334 377.099 450.417 376.904L452.275 372.878H458.441C458.744 372.878 458.992 372.628 458.992 372.322C458.992 372.017 458.744 371.767 458.441 371.767H451.917C451.697 371.767 451.504 371.892 451.421 372.086L449.412 376.432C449.288 376.71 449.398 377.043 449.673 377.168C449.756 377.21 449.838 377.223 449.921 377.223Z" fill="black"/>
<path d="M453.885 373.155H458.62C459.074 373.155 459.459 372.781 459.459 372.309C459.459 371.85 459.088 371.462 458.62 371.462H453.885C453.431 371.462 453.045 371.836 453.045 372.309C453.045 372.781 453.417 373.155 453.885 373.155Z" fill="#EC5732"/>
<path d="M463.107 377.223C463.313 377.223 463.52 377.099 463.602 376.904L465.46 372.878H471.641C471.943 372.878 472.191 372.628 472.191 372.322C472.191 372.017 471.943 371.767 471.641 371.767H465.116C464.896 371.767 464.703 371.892 464.621 372.086L462.611 376.432C462.487 376.71 462.597 377.043 462.873 377.168C462.955 377.21 463.038 377.223 463.107 377.223Z" fill="black"/>
<g opacity="0.2">
<g opacity="0.2">
<g opacity="0.2">
<path opacity="0.2" d="M439.349 440.646C439.473 440.063 432.949 416.932 432.206 414.294L431.999 414.35C433.995 421.431 439.17 439.952 439.129 440.591L439.349 440.646Z" fill="#002822"/>
</g>
<g opacity="0.2">
<path opacity="0.2" d="M448.792 423.833C448.214 423.708 425.283 430.289 422.667 431.039L422.723 431.247C429.742 429.234 448.104 423.999 448.737 424.055L448.792 423.833Z" fill="#002822"/>
</g>
<g opacity="0.2">
<path opacity="0.2" d="M446.383 419.043C445.805 419.154 427.154 434.135 425.035 435.843L425.172 436.023C430.884 431.427 445.819 419.473 446.424 419.265L446.383 419.043Z" fill="#002822"/>
</g>
<g opacity="0.2">
<path opacity="0.2" d="M422.131 425.749C422.681 425.54 446.301 428.859 448.985 429.234L448.957 429.456C441.731 428.442 422.833 425.818 422.199 425.957L422.131 425.749Z" fill="#002822"/>
</g>
<g opacity="0.2">
<path opacity="0.2" d="M440.85 414.975C440.396 415.363 431.628 437.717 430.623 440.272L430.83 440.355C433.514 433.51 440.561 415.627 440.988 415.141L440.85 414.975Z" fill="#002822"/>
</g>
<g opacity="0.2">
<path opacity="0.2" d="M425.049 419.334C425.627 419.431 444.47 434.163 446.617 435.843L446.48 436.023C440.712 431.511 425.613 419.751 425.007 419.556L425.049 419.334Z" fill="#002822"/>
</g>
</g>
<path opacity="0.2" d="M437.794 427.817C437.794 426.79 436.968 425.957 435.95 425.957C434.931 425.957 434.105 426.79 434.105 427.817C434.105 428.845 434.931 429.678 435.95 429.678C436.968 429.678 437.794 428.845 437.794 427.817Z" fill="#E65924"/>
<g opacity="0.2">
<path opacity="0.2" d="M450.43 427.526C450.43 419.473 443.933 412.92 435.95 412.92C427.967 412.92 421.47 419.473 421.47 427.526C421.47 435.579 427.967 442.132 435.95 442.132C443.933 442.132 450.43 435.579 450.43 427.526ZM448.875 427.526C448.875 434.718 443.066 440.577 435.936 440.577C428.806 440.577 422.998 434.718 422.998 427.526C422.998 420.334 428.806 414.475 435.936 414.475C443.066 414.475 448.875 420.334 448.875 427.526Z" fill="#002822"/>
</g>
</g>
<path d="M467.071 373.155H471.806C472.26 373.155 472.646 372.781 472.646 372.309C472.646 371.85 472.274 371.462 471.806 371.462H467.071C466.617 371.462 466.231 371.836 466.231 372.309C466.231 372.781 466.617 373.155 467.071 373.155Z" fill="#EC5732"/>
<path d="M425.214 396.425C425.214 396.425 422.53 396.703 422.2 397.078C421.869 397.453 420.658 399.48 420.617 399.855C420.576 400.23 420.603 400.924 420.878 400.813C421.154 400.702 422.31 398.841 422.902 398.813C423.494 398.786 425.365 397.994 425.365 397.994L425.214 396.425Z" fill="#D8A982"/>
<path d="M428.022 410.879L452.963 411.142L464.194 375.752L441.112 375.488L428.022 410.879Z" fill="black"/>
<path d="M436.074 377.293C436.074 377.293 435.578 390.302 434.381 391.594C433.61 392.427 425.214 396.425 425.214 396.425L425.296 398.022C425.296 398.022 436.211 396.467 437.822 394.495C441.001 390.622 441.208 380.056 441.359 378.931C441.511 377.82 438.317 375.571 436.074 377.293Z" fill="#D8A982"/>
<path d="M411.519 432.344H419.874C419.874 432.344 420.19 430.997 419.64 430.081C419.158 429.275 419.337 428.817 419.695 428.137C419.323 428.289 418.827 428.428 418.291 428.401C417.878 428.373 417.437 428.192 417.052 427.956C416.694 428.373 415.152 430.122 414.671 430.483C414.12 430.886 411.684 430.747 411.519 432.344Z" fill="#EC5732"/>
<path d="M450.003 401.535C449.453 404.908 446.48 407.338 443.094 407.297C438.896 407.241 432.757 407.158 430.499 407.074C425.723 406.894 423.934 407.088 423.948 407.227C424.168 409.254 424.333 408.38 422.117 408.227C422.117 408.227 414.258 408.005 416.611 402.576C418.965 397.147 441.291 395.467 443.273 395.703C444.952 395.898 450.871 396.314 450.003 401.535Z" fill="#5363BB"/>
<path d="M416.184 404.714C416.281 408.546 416.873 419.168 415.4 427.706C415.028 429.872 418.098 429.942 418.125 429.942C418.703 430.011 419.736 430.067 420.08 429.636C422.461 426.665 425.806 412.864 424.897 407.144C424.457 404.353 421.69 404.395 419.46 403.367C418.084 402.729 416.143 403.187 416.184 404.714Z" fill="#5363BB"/>
<path d="M457.337 428.127H455.603V398.984H457.337V428.127Z" fill="black"/>
<path d="M444.071 354.037C441.621 353.357 439.006 353.967 437.079 355.62C436.225 356.356 435.289 357.272 434.408 358.369C432.234 361.09 435.936 364.131 435.358 365.061C434.794 365.991 433.555 366.685 433.968 368.726C434.381 370.767 437.657 373.572 438.772 373.752C450.058 375.585 455.344 369.559 451.738 365.936C448.131 362.312 449.962 357.466 446.989 355.37C446.08 354.717 445.048 354.301 444.071 354.037Z" fill="#070707"/>
<path d="M435.703 376.363C436.597 377.071 437.753 377.682 439.212 378.112C444.677 379.723 447.072 375.127 448.049 371.934C447.32 371.448 446.618 371.323 446.205 371.239C445.805 371.17 445.393 371.114 445.035 371.073C444.443 370.559 443.631 368.532 443.589 365.464L443.328 365.519L438.896 366.477C438.896 366.477 439.02 367.893 439.033 369.212C439.047 370.254 439.006 371.239 438.799 371.475C438.497 371.559 438.221 371.656 438.221 371.656C438.153 371.753 438.153 371.711 438.18 371.684C438.111 371.767 436.804 373.697 435.703 376.363Z" fill="#F5C99D"/>
<path d="M438.896 366.477C438.896 366.477 439.019 367.893 439.033 369.212C441.525 369.101 442.805 366.796 443.328 365.519L438.896 366.477Z" fill="#D8A982"/>
<path d="M438.083 367.741C438.083 367.741 443.974 367.754 443.919 364.047C443.878 360.34 444.594 357.855 440.836 357.688C437.079 357.522 436.363 358.938 436.074 360.188C435.798 361.437 436.555 367.643 438.083 367.741Z" fill="#F5C99D"/>
<path d="M436.239 358.133C437.134 357.008 437.822 357.244 438.221 357.563C441.414 355.731 443.52 358.341 443.52 358.341C443.947 360.993 445.874 362.478 445.874 362.478C445.874 362.478 444.787 363.256 442.323 362.562C439.171 361.659 438.235 358.813 438.111 358.383C437.753 358.716 437.313 358.91 436.941 359.646C436.501 360.521 436.212 361.035 436.129 362.52C436.115 362.534 434.89 359.827 436.239 358.133Z" fill="#070707"/>
<path d="M429.766 433.923H408.831V432.215H429.766V433.923Z" fill="#070707"/>
<path d="M452.577 401.535C452.027 404.908 449.054 407.338 445.668 407.297C441.469 407.241 435.331 407.158 433.073 407.074C428.297 406.894 426.508 407.088 426.522 407.227C426.742 409.254 426.907 408.38 424.691 408.227C424.691 408.227 416.832 408.005 419.185 402.576C421.539 397.147 443.864 395.467 445.847 395.703C447.512 395.898 453.431 396.314 452.577 401.535Z" fill="#1E2C78"/>
<path d="M452.605 390.275C452.206 387.512 453.183 377.057 451.008 373.794C449.439 371.434 447.264 370.504 444.594 370.448C443.727 370.948 440.451 372.808 439.157 372.475C439.143 372.475 439.116 372.461 439.088 372.447C438.483 372.253 438.276 371.809 438.813 371.462C438.813 371.462 436.611 371.934 435.936 372.725C435.275 373.475 435.317 375.085 435.097 376.988C435.042 377.46 435.042 377.932 434.986 378.404C434.725 380.542 435.413 380.764 437.739 386.929C438.882 389.941 438.345 392.343 437.588 393.94C436.9 395.37 437.381 397.106 438.717 397.953C443.314 400.896 452.274 406.005 452.591 401.535C452.894 397.008 453.155 394.093 452.605 390.275Z" fill="#EC5732"/>
<path d="M444.787 376.89C444.787 376.89 442.571 392.024 441.098 393.315C440.148 394.148 430.679 395.676 430.679 395.676L430.527 397.147C430.527 397.147 444.03 398.147 444.801 397.008C447.925 392.413 450.1 380.542 450.403 379.32C450.705 378.098 447.457 375.252 444.787 376.89Z" fill="#F5C99D"/>
<path d="M414.079 432.219H422.434C422.434 432.219 422.75 430.872 422.2 429.956C421.718 429.15 421.897 428.692 422.255 428.012C421.883 428.165 421.388 428.303 420.851 428.276C420.438 428.248 419.997 428.067 419.612 427.831C419.254 428.248 417.712 429.997 417.231 430.358C416.68 430.775 414.244 430.636 414.079 432.219Z" fill="#EC5732"/>
<path d="M418.758 404.714C418.855 408.546 419.447 419.168 417.974 427.706C417.602 429.872 420.672 429.942 420.699 429.942C421.277 430.011 422.31 430.067 422.654 429.636C425.035 426.665 428.38 412.864 427.471 407.144C427.031 404.353 424.264 404.395 422.034 403.367C420.644 402.729 418.717 403.187 418.758 404.714Z" fill="#1E2C78"/>
<path d="M442.695 381.43C442.695 381.43 446.7 384.929 451.352 383.735C451.352 383.735 453.032 372.433 447.209 372.281C447.196 372.281 442.364 374.211 442.695 381.43Z" fill="#EC5732"/>
<path d="M455.602 411.053H427.619V408.832H455.602V411.053Z" fill="black"/>
<path d="M429.764 433.922L427.762 432.756L441.457 408.828L443.46 409.995L429.764 433.922Z" fill="#070707"/>
<path d="M455.592 408.824C455.082 408.824 453.142 406.977 450.086 407.075C447.03 407.172 430.018 407.075 430.018 407.075C430.018 407.075 427.802 406.839 427.595 408.824H455.592Z" fill="#EC5732"/>
<path d="M430.036 436.325H428.302V399.809H430.036V436.325Z" fill="#070707"/>
<path d="M419.878 437.222H418.65V433.54H419.878V437.222Z" fill="#070707"/>
<circle cx="456.699" cy="427.407" r="13.5014" fill="#FBE6E6"/>
<path d="M430.678 395.676C430.678 395.676 427.677 395.842 427.347 396.217C427.017 396.592 425.805 398.619 425.764 398.994C425.723 399.369 425.75 400.063 426.026 399.952C426.301 399.841 427.443 397.828 428.035 397.8C428.627 397.772 430.513 397.133 430.513 397.133L430.678 395.676Z" fill="#F5C99D"/>
<path d="M458.413 400.841H425.765C425.765 398.813 427.389 397.175 429.398 397.175H456.252C457.45 397.175 458.413 398.147 458.413 399.355V400.841Z" fill="black"/>
<path d="M459.858 440.646C459.982 440.063 453.458 416.932 452.715 414.294L452.508 414.35C454.504 421.431 459.679 439.952 459.638 440.591L459.858 440.646Z" fill="black"/>
<path d="M469.301 423.833C468.722 423.708 445.791 430.289 443.176 431.039L443.231 431.247C450.251 429.234 468.612 423.999 469.245 424.055L469.301 423.833Z" fill="black"/>
<path d="M466.905 419.043C466.327 419.154 447.677 434.135 445.557 435.843L445.695 436.023C451.407 431.427 466.341 419.473 466.947 419.265L466.905 419.043Z" fill="black"/>
<path d="M442.653 425.749C443.204 425.54 466.823 428.859 469.507 429.234L469.48 429.456C462.253 428.442 443.355 425.818 442.722 425.957L442.653 425.749Z" fill="black"/>
<path d="M461.359 414.975C460.904 415.363 452.137 437.717 451.132 440.272L451.338 440.355C454.036 433.496 461.083 415.627 461.51 415.141L461.359 414.975Z" fill="black"/>
<path d="M445.558 419.334C446.149 419.431 464.993 434.163 467.14 435.856L467.002 436.037C461.235 431.525 446.136 419.765 445.53 419.57L445.558 419.334Z" fill="black"/>
<path d="M458.303 427.817C458.303 426.79 457.477 425.957 456.459 425.957C455.44 425.957 454.614 426.79 454.614 427.817C454.614 428.845 455.44 429.678 456.459 429.678C457.477 429.678 458.303 428.845 458.303 427.817Z" fill="black"/>
<path d="M470.939 427.526C470.939 419.473 464.442 412.92 456.459 412.92C448.475 412.92 441.979 419.473 441.979 427.526C441.979 435.579 448.475 442.132 456.459 442.132C464.442 442.132 470.939 435.579 470.939 427.526ZM469.397 427.526C469.397 434.718 463.589 440.577 456.459 440.577C449.329 440.577 443.52 434.718 443.52 427.526C443.52 420.334 449.329 414.475 456.459 414.475C463.589 414.475 469.397 420.334 469.397 427.526Z" fill="black"/>
<path d="M426.095 439.036C426.095 437.328 427.471 435.94 429.164 435.94C430.857 435.94 432.234 437.328 432.234 439.036C432.234 440.744 430.857 442.132 429.164 442.132C427.471 442.132 426.095 440.744 426.095 439.036Z" fill="#070707"/>
<path d="M430.224 439.036C430.224 438.453 429.756 437.967 429.164 437.967C428.586 437.967 428.104 438.439 428.104 439.036C428.104 439.633 428.572 440.105 429.164 440.105C429.756 440.091 430.224 439.619 430.224 439.036Z" fill="#E65924"/>
<path d="M416.195 439.091C416.195 437.383 417.572 435.995 419.265 435.995C420.958 435.995 422.334 437.383 422.334 439.091C422.334 440.799 420.958 442.187 419.265 442.187C417.572 442.187 416.195 440.799 416.195 439.091Z" fill="#070707"/>
<path d="M420.324 439.091C420.324 438.508 419.856 438.022 419.265 438.022C418.687 438.022 418.205 438.494 418.205 439.091C418.205 439.688 418.673 440.16 419.265 440.16C419.856 440.146 420.324 439.674 420.324 439.091Z" fill="#E65924"/>
<path d="M131.113 367.111C131.113 367.111 133.872 380.558 134.918 382.76C135.963 384.962 140.173 392.871 140.173 392.871L138.944 393.718C138.944 393.718 131.374 385.913 131.113 385.066C130.852 384.232 125.896 373.756 125.896 373.756L131.113 367.111Z" fill="#F5C99D"/>
<path d="M125.792 346.589C125.792 346.589 120.444 340.179 117.607 344.283C117.607 344.283 115.489 345.156 114.731 348.739C113.947 352.4 116.391 355.176 117.66 354.485C118.47 354.042 119.085 355.462 119.085 355.462L125.792 346.589Z" fill="white"/>
<path d="M118.196 343.631C118.196 343.631 117.477 340.765 113.254 341.664C113.254 341.664 115.28 341.416 115.829 342.185C115.829 342.185 114.221 341.455 113.228 342.068C112.221 342.68 112.064 344.739 112.208 345.364C112.352 345.99 113.463 347.853 114.195 347.853C114.927 347.853 115.803 347.215 115.803 347.215L118.196 343.631Z" fill="white"/>
<path d="M111.868 388.506C113.973 383.815 114.98 382.486 115.006 381.001C115.032 379.828 114.457 378.577 113.332 375.476C113.071 374.746 112.888 374.004 112.77 373.235C111.881 367.28 115.346 360.831 117.49 360.388C118.091 360.231 119.098 358.081 119.085 354.602L119.359 354.655L123.883 355.554C123.883 355.554 123.778 356.974 123.778 358.316C123.778 359.436 123.844 360.492 124.092 360.622C124.419 360.648 124.615 360.674 124.615 360.674C124.615 360.674 128.393 365.899 128.707 370.759C129.021 375.619 125.687 377.73 128.733 387.437C131.858 397.353 110.704 391.112 111.868 388.506Z" fill="#F5C99D"/>
<path d="M123.896 355.58C123.896 355.58 123.792 357 123.792 358.342C121.255 358.277 119.922 355.971 119.373 354.694L123.896 355.58Z" fill="#D8A982"/>
<path d="M118.902 354.185C118.902 354.185 117.568 352.101 117.255 350.303C117.032 349.026 117.673 344.296 122.445 344.973C122.445 344.973 123.831 345.104 125.138 345.99C126.171 346.68 127.661 348.192 126.001 352.322L125.556 353.729L118.902 354.185Z" fill="white"/>
<path d="M124.746 356.844C124.746 356.844 118.758 356.948 118.745 353.221C118.745 349.495 117.961 347.006 121.791 346.785C125.622 346.563 126.367 347.983 126.668 349.221C126.969 350.472 126.302 356.713 124.746 356.844Z" fill="#F5C99D"/>
<path d="M124.524 346.693C124.524 346.693 122.876 351.058 120.366 351.71C117.843 352.361 116.758 351.684 116.758 351.684C116.758 351.684 118.693 350.159 119.085 347.488C119.085 347.475 123.282 344.622 124.524 346.693Z" fill="white"/>
<path d="M124.118 347.045C124.118 347.045 125.347 348.022 125.648 348.961C125.949 349.912 126.079 351.853 126.655 351.788C126.655 351.788 127.897 348.817 126.498 347.149C125.007 345.377 124.118 347.045 124.118 347.045Z" fill="white"/>
<path d="M117.176 433.576C118.68 439.556 120.955 444.13 120.955 444.13L122.929 443.999C122.929 443.999 121.961 439.4 122.014 433.198C122.053 428.859 122.589 423.725 124.315 418.826C130.224 401.992 129.27 389.744 129.27 389.744L118.144 391.034L117.621 391.099C117.568 396.193 117.438 403.099 117.333 408.506C117.228 413.367 117.137 417.002 117.137 417.002C115.019 421.601 115.79 428.077 117.176 433.576Z" fill="#070707"/>
<path d="M104.076 393.496L105.88 394.03C105.88 394.03 111.816 384.219 112.352 381.665C112.522 380.831 112.953 379.176 113.463 377.3C114.509 373.443 115.856 368.714 115.856 368.714L116.3 366.798L117.817 360.283C117.817 360.283 114.927 360.583 113.228 361.287C112.666 361.521 112.234 361.795 112.09 362.121C110.848 364.844 109.606 371.723 108.73 376.623C108.247 379.359 107.867 381.483 107.684 381.926C107.135 383.19 105.488 390.095 104.076 393.496Z" fill="#F5C99D"/>
<path d="M108.416 427.269C107.867 430.904 106.521 440.963 107.044 442.644L109.201 442.279C109.201 442.279 113.162 433.198 114.064 430.696C115.921 425.562 118.065 422.448 118.797 420.038C121.085 412.506 123.909 387.958 123.909 387.958L112.639 387.398C111.502 389.301 111.005 392.415 110.887 395.959C110.587 404.897 111.79 415.243 112.103 416.924C111.188 418.461 109.436 420.442 108.416 427.269Z" fill="#070707"/>
<path d="M124.341 347.202C124.341 347.202 123.177 351.775 120 353.234C120 353.234 123.177 350.42 123.452 347.41C123.713 344.387 124.341 347.202 124.341 347.202Z" fill="white"/>
<path d="M110.456 391.906C110.443 392.284 110.456 392.584 110.521 392.806C110.757 393.561 111.58 393.9 113.58 393.692C114.796 393.561 115.345 391.529 115.581 389.796C116.313 392.271 117.333 393.665 118.653 393.965C120.588 394.395 130.328 395.568 130.956 390.955C131.662 385.874 129.557 376.896 129.439 372.049C129.727 370.329 129.818 368.844 129.792 367.554C129.714 364.101 128.694 362.173 127.91 361.391C127.687 361.222 127.465 361.117 126.576 360.961C126.118 360.883 125.491 360.792 124.602 360.674C124.602 360.674 124.236 360.635 124.249 360.648C124.419 360.948 126.615 364.27 126.445 365.13C126.262 366.029 118.444 365.222 117.908 364.727C117.372 364.231 116.509 360.453 116.509 360.453C116.509 360.453 113.737 360.752 112.378 361.743C112.378 361.743 112.378 361.743 112.391 361.756C112.221 361.873 112.103 362.003 112.038 362.134C110.613 364.883 109.175 371.802 108.155 376.74C110.613 378.095 112.77 377.691 113.437 377.509C112.561 383.203 110.587 389.314 110.456 391.906Z" fill="#5363BB"/>
<path d="M119.817 445.797H121.085C121.503 445.732 121.817 445.615 122.249 445.55C122.902 445.459 123.216 445.732 123.268 445.797C123.282 445.81 123.282 445.81 123.282 445.81H128.642C128.773 445.615 128.642 445.172 128.524 444.846C128.433 444.625 128.25 444.455 128.027 444.39C127.465 444.221 126.341 444.078 125.308 443.152C124.733 442.631 122.523 441.237 122.523 441.237H122.51C122.458 441.237 122.236 441.302 121.229 442.149C120.706 442.579 119.817 441.537 119.817 441.537C119.817 441.537 119.647 441.68 119.529 441.928C119.425 442.123 119.359 442.41 119.412 442.748C119.49 443.231 119.229 444.13 119.032 444.729C118.902 445.094 118.797 445.354 118.797 445.354C118.797 445.354 118.732 445.654 119.817 445.797Z" fill="#E65924"/>
<path d="M119.516 441.928C119.817 442.136 120.457 442.553 120.876 442.605C121.451 442.683 122.51 441.237 122.51 441.237H122.497C122.445 441.237 122.222 441.302 121.216 442.149C120.693 442.579 119.804 441.537 119.804 441.537C119.804 441.537 119.647 441.667 119.516 441.928Z" fill="#E65924"/>
<path d="M119.817 445.797H121.085C121.503 445.732 121.817 445.615 122.249 445.55C122.902 445.459 123.216 445.732 123.268 445.797C123.282 445.81 123.282 445.81 123.282 445.81H128.642C128.773 445.615 128.642 445.172 128.524 444.846C128.367 444.703 128.315 445.472 128.224 445.602C128.132 445.719 123.857 445.641 123.608 445.472C123.36 445.289 122.615 444.977 121.582 445.224C120.68 445.433 119.359 444.885 119.032 444.742C118.902 445.107 118.797 445.367 118.797 445.367C118.797 445.367 118.732 445.654 119.817 445.797Z" fill="#E65924"/>
<path d="M106.874 445.797H108.129C108.547 445.732 108.861 445.615 109.292 445.55C109.946 445.459 110.26 445.732 110.312 445.797C110.325 445.81 110.325 445.81 110.325 445.81H115.685C115.816 445.615 115.685 445.172 115.568 444.846C115.476 444.625 115.293 444.455 115.071 444.39C114.509 444.221 113.384 444.078 112.352 443.152C111.776 442.631 109.567 441.237 109.567 441.237H109.554C109.501 441.237 109.279 441.302 108.273 442.149C107.75 442.579 106.861 441.537 106.861 441.537C106.861 441.537 106.691 441.68 106.573 441.928C106.468 442.123 106.403 442.41 106.455 442.748C106.534 443.231 106.272 444.13 106.076 444.729C105.945 445.094 105.841 445.354 105.841 445.354C105.841 445.354 105.788 445.654 106.874 445.797Z" fill="#E65924"/>
<path d="M106.573 441.928C106.874 442.136 107.514 442.553 107.933 442.605C108.508 442.683 109.567 441.237 109.567 441.237H109.554C109.502 441.237 109.279 441.302 108.273 442.149C107.75 442.579 106.861 441.537 106.861 441.537C106.861 441.537 106.704 441.667 106.573 441.928Z" fill="#E65924"/>
<path d="M106.874 445.797H108.129C108.547 445.732 108.861 445.615 109.292 445.55C109.946 445.459 110.26 445.732 110.312 445.797C110.325 445.81 110.325 445.81 110.325 445.81H115.685C115.816 445.615 115.685 445.172 115.568 444.846C115.411 444.703 115.359 445.472 115.267 445.602C115.176 445.719 110.9 445.641 110.652 445.472C110.404 445.289 109.658 444.977 108.625 445.224C107.723 445.433 106.403 444.885 106.076 444.742C105.945 445.107 105.841 445.367 105.841 445.367C105.841 445.367 105.788 445.654 106.874 445.797Z" fill="#E65924"/>
<path d="M110.456 391.907C111.79 391.463 113.516 390.278 115.568 387.62C121.02 380.584 116.026 372.323 115.359 372.18C114.692 372.023 113.424 377.522 113.424 377.522C112.561 383.203 110.587 389.314 110.456 391.907Z" fill="#1E2C78"/>
<path d="M127.596 361.235C127.596 361.235 131.335 363.111 132.577 370.668C132.577 370.668 131.348 372.336 129.623 372.831C129.374 372.896 129.126 372.948 128.851 372.961C126.746 373.079 127.596 361.235 127.596 361.235Z" fill="#5363BB"/>
<path d="M140.173 392.858C140.173 392.858 142.278 394.578 142.226 395.359C142.174 396.141 140.971 397.509 140.173 397.457C139.389 397.405 138.944 393.705 138.944 393.705L140.173 392.858Z" fill="#F5C99D"/>
<path d="M140.583 393.975L139.968 394.1L150.463 445.559L151.078 445.435L140.583 393.975Z" fill="#070707"/>
<path d="M140.683 399.384L141.989 399.116L140.812 393.411L139.505 393.679L140.683 399.384Z" fill="#070707"/>
<path d="M104.403 392.675C104.403 392.675 101.801 394.278 101.422 394.955C101.043 395.646 100.167 398.187 100.167 398.187C100.167 398.187 100.794 398.278 101.422 397.184C102.049 396.089 104.128 396.18 104.821 395.581C105.514 394.982 106.325 393.236 106.325 393.236L104.403 392.675Z" fill="#F5C99D"/>
<path d="M106.037 393.796C106.037 393.796 105.632 395.724 105.122 396.285C104.612 396.845 103.932 397.796 103.644 397.535C103.357 397.288 103.958 395.177 103.958 395.177L106.037 393.796Z" fill="#F5C99D"/>
<path d="M101.762 395.19C101.696 395.281 99.5261 397.574 99.5261 397.574C99.5261 397.574 100.311 397.926 100.533 397.574C100.755 397.223 101.762 395.19 101.762 395.19Z" fill="#F5C99D"/>
<path d="M220.417 366.473C220.417 366.473 221.91 367.051 222.256 367.529C222.602 368.007 223.725 368.773 223.45 369.025C223.176 369.276 222.411 368.623 222.065 368.798C221.719 368.974 222.017 371.815 221.635 371.941C221.241 372.067 220.118 371.815 219.891 370.772C219.665 369.729 219.378 366.976 218.96 366.549C218.518 366.121 220.417 366.473 220.417 366.473Z" fill="#FFB27D"/>
<path d="M221.181 366.875C221.181 366.875 220.345 347.92 218.852 345.545C217.599 343.533 217.742 342.05 215.425 341.183C212.069 339.926 205.979 342.691 210.612 349.253C212.105 351.364 213.861 353.036 215.652 354.343C221.372 358.529 218.841 373.11 218.841 373.11" fill="#CD4D2D"/>
<path d="M221.623 431.094H210.696C209.908 430.541 210.911 425.073 210.911 425.073C210.911 425.073 213.896 423.879 214.41 426.305C214.923 428.731 218.208 429.497 219.951 429.787C221.122 429.988 221.504 430.679 221.623 431.094Z" fill="#002822"/>
<path d="M205.406 431.094H194.478C193.69 430.541 194.693 425.073 194.693 425.073C194.693 425.073 197.679 423.879 198.192 426.305C198.706 428.731 201.99 429.497 203.734 429.787C204.916 429.988 205.286 430.679 205.406 431.094Z" fill="#002822"/>
<path d="M218.673 375.335C218.673 375.335 218.183 381.783 217.61 389.538C216.822 400.072 214.708 426.192 214.708 426.192C214.708 426.192 213.323 427.436 210.242 426.757C210.242 426.757 207.626 417.745 206.838 407.463C206.826 407.299 206.814 407.123 206.802 406.96C206.074 396.49 204.939 374.442 204.939 374.442L218.673 375.335Z" fill="#1E2C78"/>
<path d="M218.84 373.11C218.84 373.11 218.183 381.796 217.598 389.551L206.838 407.475C206.826 407.312 206.814 407.136 206.802 406.973C206.074 396.502 204.939 374.455 204.939 374.455L218.84 373.11Z" fill="#1E2C78"/>
<path d="M215.711 373.11C215.711 373.11 207.901 393.561 205.405 401.316C203.626 406.834 198.61 426.217 198.61 426.217C198.61 426.217 196.424 426.921 194.597 425.563C194.597 425.563 192.734 405.766 196.496 400.185C198.49 397.219 196.998 369.402 205.095 369.163C213.203 368.924 215.711 373.11 215.711 373.11Z" fill="#1E2C78"/>
<path d="M212.224 342.955C211.03 343.621 209.872 343.659 208.857 343.433C207.937 343.232 207.137 342.804 206.576 342.415C206.002 342.025 205.656 341.686 205.656 341.686C205.656 341.686 205.692 341.623 205.763 341.51C206.11 340.881 207.185 338.594 206.707 334.936C206.695 334.886 207.041 334.961 207.567 335.087C209.119 335.476 212.224 336.407 212.368 336.444C212.368 336.444 212.403 337.211 212.535 338.594C212.547 338.719 212.559 338.845 212.571 338.971C212.583 339.134 212.606 339.31 212.618 339.486C212.774 340.919 212.224 342.955 212.224 342.955Z" fill="#F5C99D"/>
<path d="M212.547 338.594C210.23 339.147 206.779 335.564 206.779 335.564C207.029 335.363 207.292 335.212 207.567 335.087C209.119 335.476 212.224 336.406 212.368 336.444C212.368 336.444 212.415 337.211 212.547 338.594Z" fill="#D8A982"/>
<path d="M213.323 336.243C213.323 336.243 212.367 336.608 211.161 336.771C209.394 337.022 207.053 336.872 206.325 334.622C205.095 330.826 203.518 328.538 207.149 326.992C209.095 326.162 210.337 326.112 211.173 326.439C211.902 326.715 212.344 327.256 212.666 327.796C213.383 328.965 214.792 335.589 213.323 336.243Z" fill="#F5C99D"/>
<path d="M215.532 328.098C213.431 329.682 210.529 328.123 209.621 328.55C208.713 328.978 208.558 330.562 208.534 331.077C208.522 331.58 208.451 332.007 207.233 331.705C207.03 331.655 206.886 331.668 206.791 331.731C206.277 332.045 206.934 333.591 207.125 333.918C207.125 333.918 207.412 335.024 206.779 335.552C206.707 335.615 205.477 336.18 202.515 331.404C202.05 330.65 201.608 328.965 202.324 327.344C203.041 325.722 206.05 324.151 208.594 323.321C209.549 323.007 210.254 323.02 210.815 323.233C211.735 323.585 212.236 324.503 212.714 325.433C213.526 326.979 215.532 328.098 215.532 328.098Z" fill="#070707"/>
<path d="M219.891 369.666C219.724 372.004 219.246 373.688 218.219 373.688C218.219 373.688 213.633 375.385 208.152 375.435C207.077 375.448 205.56 375.222 204.307 375.008C203.017 374.782 202.002 374.543 202.002 374.543C200.903 374.279 199.685 373.562 199.852 372.23C199.948 371.476 200.007 370.508 200.055 369.377C200.175 366.31 200.151 362.086 200.175 358.051C200.186 355.575 200.21 353.162 200.282 351.126C200.282 351.126 199.195 343.131 200.401 341.824C201.811 340.291 205.943 339.813 206.205 339.876C206.289 339.863 206.361 339.838 206.444 339.825C206.444 339.825 209.967 341.912 212.583 340.366C212.583 340.366 212.606 340.366 212.654 340.379C213.287 340.479 216.464 341.258 217.562 342.478C217.945 342.892 219.449 345.482 219.497 348.31C219.557 352.257 219.413 356.744 219.413 356.757C219.449 357.398 219.521 358.227 219.593 359.17C219.664 360.176 219.748 361.307 219.831 362.501C219.867 363.104 219.903 363.708 219.927 364.324C219.987 366.184 220.011 368.082 219.891 369.666Z" fill="#EC5732"/>
<path d="M203.745 354.72C203.745 354.72 203.757 366.159 200.055 369.364C200.174 366.297 200.15 362.074 200.174 358.039L203.745 354.72Z" fill="#CD4D2D"/>
<path d="M192.364 376.139C192.364 376.139 190.477 379.256 190.37 380.451C190.298 381.268 190.465 384.46 190.86 384.473C191.397 384.485 191.946 382.499 192.149 381.984C192.364 381.469 192.603 381.066 192.818 381.066C193.033 381.066 192.364 383.053 192.818 382.839C193.272 382.613 194.048 380.777 194.12 380.337C194.191 379.898 193.714 378.477 193.941 377.924C194.18 377.333 192.364 376.139 192.364 376.139Z" fill="#F5C99D"/>
<path d="M200.76 341.372C200.76 341.372 198.216 342.641 196.079 352.018C194.466 359.095 191.385 377.145 191.385 377.145L193.989 378.276C193.989 378.276 203.542 355.198 204.904 351.955C206.277 348.712 200.76 341.372 200.76 341.372Z" fill="#EC5732"/>
<g clip-path="url(#clip2)">
<path d="M374.817 436.772L376.647 436.16C376.647 436.16 377.033 431.06 376.211 424.966C375.701 421.103 374.742 416.908 373.036 413.543C372.264 412.025 371.331 410.661 370.21 409.59C370.21 409.59 368.803 406.25 366.936 401.775C364.869 396.802 351.909 395.349 359.304 405.765C360.823 407.907 362.454 411.668 364.409 413.951C367.745 417.852 370.098 422.416 371.717 426.42C374.02 432.144 374.817 436.772 374.817 436.772Z" fill="#F5C99D"/>
<path d="M378.987 437.053C379.548 437.971 378.34 438.876 376.859 439.73C375.377 440.584 375.987 440.661 374.095 442.114C372.202 443.555 371.082 443.402 370.783 443.185C370.521 442.994 371.306 442.101 372.115 441.132C372.215 441.005 372.314 440.89 372.426 440.763C373.335 439.653 373.472 438.251 373.895 436.798C374.294 435.421 373.659 432.004 373.659 432.004L376.186 429.938C376.186 429.938 376.697 433.049 376.983 434.337C377.145 435.102 377.755 435.739 378.253 436.198C378.514 436.466 378.788 436.721 378.987 437.053Z" fill="#F5C99D"/>
<path d="M376.859 439.73C375.377 440.584 375.987 440.661 374.095 442.114C372.202 443.555 371.082 443.402 370.783 443.185C370.521 442.994 371.306 442.101 372.115 441.132L372.14 441.145C372.14 441.145 373.858 440.916 375.315 439.577C376.51 438.493 377.431 436.963 378.253 436.211C378.514 436.466 378.788 436.734 378.987 437.053C379.548 437.971 378.34 438.876 376.859 439.73Z" fill="#EC5732"/>
<path d="M362.118 339.06C362.118 339.06 366.587 338.499 368.841 342.757C371.094 347.016 370.907 353.187 373.086 356.106C375.265 359.013 372.725 361.78 372.725 361.78L355.743 362.366C355.743 362.366 354.56 359.115 355.743 355.201C356.926 351.3 351.162 339.647 362.118 339.06Z" fill="#EC5732"/>
<path d="M346.991 390.759C347.165 391.435 347.738 392.978 348.174 392.978C348.535 392.978 348.659 391.104 349.132 390.696C349.804 390.122 350.352 388.898 350.439 388.605C350.614 387.993 350.788 387.878 350.788 387.878C350.788 387.878 356.154 377.831 356.577 375.256C356.714 374.414 357.063 372.731 357.474 370.857C357.922 368.805 358.445 366.522 358.831 364.814C357.113 364.47 355.22 364.355 353.676 364.317C353.365 366.395 353.079 368.524 352.842 370.373C352.481 373.127 352.207 375.256 352.033 375.715C351.56 376.964 350.278 383.734 349.07 387.253C348.933 387.597 348.535 388.503 348.111 388.809C347.576 389.191 346.816 390.084 346.991 390.759Z" fill="#F5C99D"/>
<path d="M354.785 366.408C355.096 361.55 358.769 356.323 358.769 356.323C358.769 356.323 358.906 356.31 359.13 356.285C359.254 356.272 359.366 356.183 359.404 356.068C359.541 355.685 359.578 354.844 359.578 353.964C359.578 352.626 359.478 351.21 359.478 351.21L363.886 350.318L364.147 350.267C364.135 352.536 364.558 354.245 365.019 355.188C365.23 355.647 365.654 355.953 366.139 356.017C367.085 356.157 368.754 356.438 369.874 356.922C370.422 357.152 370.833 357.432 370.982 357.764C372.177 360.492 354.474 371.265 354.785 366.408Z" fill="#F5C99D"/>
<path d="M359.478 351.21C359.478 351.21 359.578 352.626 359.578 353.964C362.043 353.888 363.35 351.593 363.873 350.318L359.478 351.21Z" fill="#D8A982"/>
<path d="M358.657 352.485C358.657 352.485 364.483 352.587 364.496 348.864C364.496 345.142 365.255 342.655 361.533 342.426C357.81 342.209 357.088 343.624 356.789 344.861C356.49 346.111 357.138 352.358 358.657 352.485Z" fill="#F5C99D"/>
<path d="M350.514 439.169L352.382 439.641C352.382 439.641 355.32 435.51 357.773 429.887C359.329 426.318 360.673 422.25 360.947 418.464C361.072 416.755 360.972 415.098 360.574 413.568C360.574 413.568 361.097 409.973 361.806 405.166C362.603 399.824 363.636 392.99 364.433 387.967L363.948 387.814L355.992 383.046C355.992 383.046 352.332 391.588 353.266 404.427C353.452 407.066 352.905 411.133 353.39 414.129C354.224 419.242 353.876 424.392 353.191 428.676C352.22 434.809 350.514 439.169 350.514 439.169Z" fill="#F5C99D"/>
<path d="M356.951 342.796C357.847 341.674 358.532 341.916 358.918 342.26C362.043 340.488 364.159 343.114 364.159 343.114C364.545 345.792 366.425 347.322 366.425 347.322C366.425 347.322 365.392 347.883 362.914 347.347C359.976 346.71 359.167 343.318 359.055 342.872C358.694 343.204 357.997 343.905 357.785 344.606C357.499 345.55 357.362 347.5 356.814 347.437C356.801 347.449 355.606 344.479 356.951 342.796Z" fill="#EC5732"/>
<path d="M351.162 417.074C358.208 421.192 376.734 414.639 376.721 414.256C376.622 412.242 374.842 400.105 372.75 388.515C371.468 381.388 368.044 378.724 368.592 378.277L368.604 378.265C370.721 376.735 372.401 360.517 370.994 357.776C370.932 357.636 370.808 357.521 370.646 357.407C370.658 357.394 370.658 357.394 370.658 357.394C369.339 356.412 366.649 356.106 366.649 356.106C366.649 356.106 365.193 359.752 364.757 360.313C361.881 363.985 356.727 362.328 357.424 360.046C357.673 359.217 358.98 356.591 359.142 356.297C359.155 356.285 358.781 356.336 358.781 356.336C357.91 356.45 357.299 356.54 356.864 356.616C355.992 356.769 355.781 356.871 355.569 357.037C354.809 357.815 353.826 359.752 353.739 363.195C353.714 364.483 352.407 378.647 356.627 378.405C356.727 378.405 356.64 378.634 356.453 379.068C355.855 380.47 354.162 383.989 353.677 388.503C352.058 403.203 351.162 417.074 351.162 417.074Z" fill="#1E2C78"/>
<path d="M353.913 441.668C353.913 442.752 352.432 442.866 350.726 442.79C349.02 442.713 349.506 443.121 347.153 443.325C344.8 443.529 343.928 442.79 343.791 442.458C343.667 442.165 344.787 441.821 345.982 441.426C346.132 441.375 346.281 441.324 346.431 441.273C347.775 440.814 348.609 439.692 349.717 438.697C350.763 437.741 351.983 434.49 351.983 434.49L355.195 434.107C355.195 434.107 354.038 437.027 353.614 438.277C353.365 439.016 353.552 439.883 353.726 440.546C353.826 440.916 353.913 441.285 353.913 441.668Z" fill="#F5C99D"/>
<path d="M350.726 442.79C349.02 442.713 349.506 443.121 347.153 443.325C344.8 443.529 343.928 442.79 343.791 442.458C343.667 442.165 344.787 441.821 345.982 441.426L345.995 441.451C345.995 441.451 347.576 442.178 349.506 441.834C351.074 441.553 352.643 440.763 353.726 440.559C353.826 440.916 353.913 441.285 353.913 441.668C353.913 442.752 352.432 442.866 350.726 442.79Z" fill="#EC5732"/>
<path d="M351.162 417.074C358.208 421.192 376.734 414.639 376.721 414.257C376.622 412.242 374.842 400.105 372.75 388.515C371.468 381.388 368.044 378.724 368.592 378.278C368.467 378.392 366.475 380.024 362.827 379.807C359.565 379.603 357.05 379.183 356.44 379.081C355.843 380.483 354.15 384.002 353.664 388.515C352.058 403.203 351.162 417.074 351.162 417.074Z" fill="#EC5732"/>
<path d="M368.592 378.265C368.592 378.265 362.827 380.725 356.602 378.405L356.291 379.399C356.291 379.399 362.69 381.682 368.841 379.081L368.592 378.265Z" fill="#070707"/>
<path d="M373.211 373.369C373.273 373.28 370.173 372.247 368.355 372.693C367.272 372.961 367.708 374.3 368.604 374.389C369.488 374.491 372.613 374.108 373.211 373.369Z" fill="#F5C99D"/>
<path d="M367.857 373.012C367.857 373.012 366.849 374.389 366.849 375.039C366.849 375.689 367.397 377.194 367.932 377.028C368.467 376.862 368.691 375.409 368.779 375.077C368.866 374.746 369.476 374.516 369.613 374.045C369.75 373.586 369.775 373.394 369.775 373.394L367.857 373.012Z" fill="#F5C99D"/>
<path d="M372.327 360.964C372.314 360.951 380.307 374.644 379.286 377.181C378.253 379.718 377.506 377.551 376.61 376.544C376.448 376.365 369.277 366.879 369.501 365.35C369.725 363.82 372.327 360.964 372.327 360.964Z" fill="#F5C99D"/>
<path d="M370.646 357.407C370.646 357.407 372.8 359.192 375.103 364.521C375.103 364.521 374.642 367.95 368.604 368.881C362.553 369.825 370.646 357.407 370.646 357.407Z" fill="#1E2C78"/>
<path d="M356.03 356.795C356.03 356.795 353.814 357.139 352.83 361.576C351.847 366.013 351.996 368.409 351.996 368.409C351.996 368.409 353.017 369.71 354.361 369.378C355.706 369.034 356.03 356.795 356.03 356.795Z" fill="#1E2C78"/>
<path d="M379.174 377.653C379.174 377.653 379.622 376.735 377.605 375.243C376.086 374.108 372.526 373.114 372.526 373.114L368.106 373.445C368.106 373.445 372.712 377.462 374.966 378.277C377.12 379.055 379.062 378.571 379.174 377.653Z" fill="#F5C99D"/>
</g>
<path d="M255.305 400.614C255.305 400.614 251.852 401.044 251.53 401.289C251.208 401.535 250.416 403.167 250.503 403.658C250.59 404.161 251.704 404.946 252.075 404.946C252.459 404.946 252.595 404.112 252.954 403.927C253.313 403.743 253.634 403.694 253.907 403.621C254.427 403.486 255.404 403.032 255.404 403.032L255.305 400.614Z" fill="#D8A982"/>
<path d="M270.976 384.257C270.976 384.257 266.433 396.442 264.477 397.387C262.522 398.332 255.306 400.614 255.306 400.614V403.412C255.306 403.412 262.646 403.523 266.285 402.467C269.924 401.412 274.664 397.473 274.664 397.473L270.976 384.257Z" fill="#172055"/>
<path d="M280.457 372.722L276.013 381.079L274.949 381.152L274.466 382.49L270.01 395.792C270.022 395.792 267.559 378.882 280.457 372.722Z" fill="#172055"/>
<path d="M273.042 380.109C273.042 380.109 268.129 398.062 267.658 415.205C267.658 415.205 271.73 416.616 278.142 415.499C284.566 414.383 273.042 380.109 273.042 380.109Z" fill="#172055"/>
<path d="M295.446 465.455H299.865C300.422 465.161 300.917 464.474 301.078 463.443C301.288 462.032 302.885 461.259 303.232 460.105C303.578 458.952 301.808 457.332 301.808 457.332L301.511 456.951L301.202 456.559L298.268 457.246C298.268 457.246 298.194 457.933 298.157 458.817C298.12 459.455 298.107 460.191 298.144 460.829C298.231 462.363 297.711 464.02 296.337 464.326C295.31 464.56 295.347 465.161 295.446 465.455Z" fill="#002822"/>
<path d="M269.812 465.455H279.912C280.395 464.866 280.222 462.694 280.147 461.995C280.135 461.848 280.123 461.774 280.123 461.774C280.123 461.774 276.669 459.038 276.199 461.136C276.186 461.197 276.162 461.271 276.149 461.332C275.555 463.296 272.869 464.179 271.322 464.425C270.319 464.572 269.948 465.1 269.812 465.455Z" fill="#002822"/>
<path d="M271.73 409.548C271.73 409.548 272.25 416.027 272.869 423.819C273.711 434.397 274.713 447.392 274.812 449.859C274.986 454.129 275.679 460.977 275.679 460.977C275.679 460.977 277.313 462.596 280.593 461.921C280.593 461.921 283.514 452.153 284.343 441.833C284.356 441.662 284.368 441.49 284.38 441.318C285.16 430.802 286.361 408.664 286.361 408.664L271.73 409.548Z" fill="#EC5732"/>
<path d="M271.73 409.548C271.73 409.548 272.25 416.027 272.869 423.819L284.343 441.821C284.356 441.649 284.368 441.477 284.38 441.306C285.16 430.789 286.361 408.652 286.361 408.652L271.73 409.548Z" fill="#CD4D2D"/>
<path d="M274.12 410.321C274.12 410.321 283.564 433.783 289.765 444.815C295.979 455.847 297.909 458.915 297.909 458.915C297.909 458.915 301.462 457.504 301.784 456.547C301.784 456.547 299.407 435.256 295.248 430.065C292.896 427.132 290.136 418.334 290.012 415.254C289.889 412.174 289.171 406.087 289.171 406.087L274.12 410.321Z" fill="#EC5732"/>
<path d="M276.471 376.109C280.16 377.262 286.547 374.145 286.547 374.145C286.547 374.145 283.143 371.617 283.329 366.353L280.482 368.635L278.539 370.182C278.539 370.182 278.551 371.09 278.761 372.697C278.798 372.992 278.848 373.299 278.897 373.642C278.935 373.912 278.823 374.182 278.588 374.329C277.239 375.139 276.471 376.109 276.471 376.109Z" fill="#F5C99D"/>
<path d="M271.322 410.088C271.434 410.174 271.557 410.235 271.706 410.235C273.092 410.21 277.127 410.983 280.556 410.628C283.44 410.358 285.99 409.511 288.725 408.284C289.084 408.124 289.926 407.682 289.913 407.277C289.901 406.836 289.852 406.198 289.802 405.388C289.604 402.59 289.27 397.767 289.604 392.196C289.666 391.165 289.691 390.135 289.703 389.116C289.728 381.582 288.218 374.943 285.198 372.697C285.198 372.697 283.081 373.875 281.62 374.341C280.185 374.796 279.454 374.71 278.712 374.219C278.712 374.219 277.264 374.931 276.645 375.605C275.209 377.152 274.095 379.201 273.352 382.158C272.721 384.662 272.139 388.331 271.929 393.018C271.83 395.141 271.236 410.014 271.322 410.088Z" fill="white"/>
<path d="M292.327 413.585C283.019 419.377 275.419 416.444 275.419 416.444C274.057 405.879 274.812 393.129 274.986 390.024C275.431 376.379 285.185 372.722 285.185 372.722L289.245 385.177L289.851 390.724L290.941 400.737L292.327 413.585Z" fill="#1E2C78"/>
<path d="M278.538 370.182C278.538 370.182 278.55 371.09 278.761 372.697C280.902 372.329 283.341 368.893 283.341 368.893C282.251 368.574 281.286 368.525 280.481 368.635L278.538 370.182Z" fill="#D8A982"/>
<path d="M276.941 370.083C276.941 370.083 283.588 371.176 284.207 367.065C284.826 362.954 286.113 360.328 281.892 359.444C277.672 358.573 276.607 360.021 276.062 361.346C275.518 362.672 275.221 369.691 276.941 370.083Z" fill="#F5C99D"/>
<path d="M295.781 405.94C295.781 405.94 296.498 406.885 296.523 407.253C296.709 409.805 295.545 410.149 298.578 411.572C298.578 411.572 299.878 412.063 299.902 411.069C299.927 410.075 298.999 410.051 299.172 408.652C299.37 407.044 299.345 407.02 298.281 406.185L297.575 405.032L295.781 405.94Z" fill="#F5C99D"/>
<path d="M284.207 366.672C284.207 366.672 283.526 366.562 283.638 365.629C283.749 364.696 283.749 363.481 282.982 363.702C282.214 363.923 282.177 364.537 281.868 364.181C281.558 363.825 281.546 362.34 279.281 362.23C277.003 362.132 276.087 362.905 275.023 362.451C273.971 361.984 273.909 360.401 273.909 360.401C273.909 360.401 274.206 360.966 274.664 361.15C274.664 361.15 272.906 358.757 274.936 357.125C276.979 355.481 279.058 356.561 280.246 356.634C282.846 356.794 284.529 356.941 285.383 358.647C286.237 360.328 285.878 365.04 284.207 366.672Z" fill="#070707"/>
<path d="M296.907 407.057C296.907 407.057 296.226 407.768 296.176 408.063C296.04 409.008 295.718 409.425 295.879 409.523C296.213 409.732 296.647 409.032 296.857 408.407C297.067 407.781 296.907 407.057 296.907 407.057Z" fill="#F5C99D"/>
<path d="M290.928 400.737C288.886 395.559 283.18 386.821 283.18 386.821L289.839 390.724L290.928 400.737Z" fill="#172055"/>
<path d="M297.588 406.664C296.436 406.885 295.199 406.799 295.199 406.799C295.199 406.799 291.795 396.381 291.362 395.436C291.077 394.822 286.745 390.441 283.712 387.423C281.93 385.643 281.348 383.005 282.227 380.649L285.185 372.734C285.185 372.734 287.487 374.072 289.913 378.232C292.921 383.373 296.214 391.644 296.808 392.982C298.565 397.007 299.172 406.014 299.172 406.014C299.172 406.014 298.491 406.492 297.588 406.664Z" fill="#1E2C78"/>
<path d="M285.185 372.722L280.741 381.079L278.464 380.256L279.206 382.49L274.751 395.792C274.738 395.792 272.275 378.882 285.185 372.722Z" fill="#172055"/>
<path d="M31.63 41V31.7578H34.4737C35.2862 31.7578 36.012 31.9419 36.651 32.3101C37.2942 32.674 37.7956 33.1945 38.1553 33.8716C38.5151 34.5444 38.6949 35.3104 38.6949 36.1694V36.5947C38.6949 37.4538 38.5172 38.2176 38.1617 38.8862C37.8105 39.5549 37.3132 40.0732 36.67 40.4414C36.0268 40.8096 35.301 40.9958 34.4928 41H31.63ZM33.5343 33.3003V39.4702H34.4547C35.1995 39.4702 35.7686 39.2269 36.1622 38.7402C36.5557 38.2536 36.7567 37.5575 36.7652 36.6519V36.1631C36.7652 35.2236 36.5706 34.5127 36.1812 34.0303C35.7919 33.5436 35.2227 33.3003 34.4737 33.3003H33.5343ZM44.4164 37.6167H42.8993V41H40.995V31.7578H44.4291C45.5209 31.7578 46.363 32.0011 46.9555 32.4878C47.5479 32.9744 47.8442 33.6621 47.8442 34.5508C47.8442 35.1813 47.7066 35.7082 47.4316 36.1313C47.1607 36.5503 46.7481 36.8846 46.1938 37.1343L48.1933 40.9111V41H46.1493L44.4164 37.6167ZM42.8993 36.0742H44.4355C44.9137 36.0742 45.2839 35.9536 45.5463 35.7124C45.8087 35.467 45.9399 35.1305 45.9399 34.7031C45.9399 34.2673 45.815 33.9245 45.5653 33.6748C45.3199 33.4251 44.9412 33.3003 44.4291 33.3003H42.8993V36.0742ZM57.7996 36.5884C57.7996 37.4982 57.6388 38.2959 57.3171 38.9814C56.9955 39.667 56.5343 40.196 55.9334 40.5684C55.3367 40.9408 54.6511 41.127 53.8767 41.127C53.1108 41.127 52.4273 40.9429 51.8264 40.5747C51.2255 40.2065 50.76 39.6818 50.4299 39.0005C50.0999 38.3149 49.9327 37.5278 49.9285 36.6392V36.1821C49.9285 35.2723 50.0914 34.4725 50.4172 33.7827C50.7473 33.0887 51.2107 32.5576 51.8074 32.1895C52.4083 31.8171 53.0938 31.6309 53.864 31.6309C54.6342 31.6309 55.3176 31.8171 55.9143 32.1895C56.5152 32.5576 56.9786 33.0887 57.3045 33.7827C57.6345 34.4725 57.7996 35.2702 57.7996 36.1758V36.5884ZM55.8699 36.1694C55.8699 35.2004 55.6964 34.464 55.3494 33.9604C55.0024 33.4569 54.5073 33.2051 53.864 33.2051C53.225 33.2051 52.732 33.4548 52.385 33.9541C52.038 34.4492 51.8624 35.1771 51.8582 36.1377V36.5884C51.8582 37.5321 52.0317 38.2642 52.3787 38.7847C52.7257 39.3052 53.225 39.5654 53.8767 39.5654C54.5157 39.5654 55.0066 39.3158 55.3494 38.8164C55.6921 38.3128 55.8656 37.5807 55.8699 36.6201V36.1694ZM62.1183 41H60.214V31.7578H62.1183V41ZM71.5659 33.3003H68.7348V41H66.8305V33.3003H64.0375V31.7578H71.5659V33.3003ZM78.2586 38.5752C78.2586 38.2155 78.1316 37.9404 77.8777 37.75C77.6238 37.5553 77.1668 37.3522 76.5066 37.1406C75.8465 36.9248 75.3238 36.7132 74.9388 36.5059C73.8893 35.9388 73.3645 35.175 73.3645 34.2144C73.3645 33.715 73.5042 33.2707 73.7835 32.8813C74.067 32.4878 74.4711 32.181 74.9959 31.9609C75.5249 31.7409 76.1173 31.6309 76.7732 31.6309C77.4334 31.6309 78.0216 31.7515 78.5379 31.9927C79.0541 32.2297 79.4541 32.5661 79.7376 33.002C80.0253 33.4378 80.1692 33.9329 80.1692 34.4873H78.2649C78.2649 34.0641 78.1316 33.7362 77.865 33.5034C77.5984 33.2664 77.2239 33.1479 76.7415 33.1479C76.276 33.1479 75.9142 33.2474 75.656 33.4463C75.3979 33.641 75.2688 33.8991 75.2688 34.2207C75.2688 34.5212 75.4191 34.7729 75.7195 34.9761C76.0242 35.1792 76.4707 35.3696 77.0589 35.5474C78.1422 35.8732 78.9314 36.2773 79.4265 36.7598C79.9217 37.2422 80.1692 37.8431 80.1692 38.5625C80.1692 39.3623 79.8666 39.9907 79.2615 40.4478C78.6564 40.9006 77.8417 41.127 76.8177 41.127C76.1067 41.127 75.4593 40.9979 74.8753 40.7397C74.2913 40.4774 73.8448 40.1198 73.5359 39.667C73.2312 39.2142 73.0789 38.6895 73.0789 38.0928H74.9895C74.9895 39.1126 75.5989 39.6226 76.8177 39.6226C77.2705 39.6226 77.6238 39.5316 77.8777 39.3496C78.1316 39.1634 78.2586 38.9053 78.2586 38.5752ZM91.3139 38.5752C91.3139 38.2155 91.187 37.9404 90.9331 37.75C90.6792 37.5553 90.2221 37.3522 89.562 37.1406C88.9018 36.9248 88.3792 36.7132 87.9941 36.5059C86.9446 35.9388 86.4199 35.175 86.4199 34.2144C86.4199 33.715 86.5595 33.2707 86.8388 32.8813C87.1224 32.4878 87.5265 32.181 88.0512 31.9609C88.5802 31.7409 89.1726 31.6309 89.8286 31.6309C90.4887 31.6309 91.0769 31.7515 91.5932 31.9927C92.1095 32.2297 92.5094 32.5661 92.7929 33.002C93.0807 33.4378 93.2246 33.9329 93.2246 34.4873H91.3203C91.3203 34.0641 91.187 33.7362 90.9204 33.5034C90.6538 33.2664 90.2793 33.1479 89.7968 33.1479C89.3313 33.1479 88.9695 33.2474 88.7114 33.4463C88.4532 33.641 88.3242 33.8991 88.3242 34.2207C88.3242 34.5212 88.4744 34.7729 88.7749 34.9761C89.0795 35.1792 89.526 35.3696 90.1142 35.5474C91.1975 35.8732 91.9868 36.2773 92.4819 36.7598C92.977 37.2422 93.2246 37.8431 93.2246 38.5625C93.2246 39.3623 92.922 39.9907 92.3168 40.4478C91.7117 40.9006 90.8971 41.127 89.873 41.127C89.1621 41.127 88.5146 40.9979 87.9306 40.7397C87.3466 40.4774 86.9002 40.1198 86.5913 39.667C86.2866 39.2142 86.1342 38.6895 86.1342 38.0928H88.0449C88.0449 39.1126 88.6543 39.6226 89.873 39.6226C90.3258 39.6226 90.6792 39.5316 90.9331 39.3496C91.187 39.1634 91.3139 38.9053 91.3139 38.5752ZM103.021 36.5884C103.021 37.4982 102.86 38.2959 102.539 38.9814C102.217 39.667 101.756 40.196 101.155 40.5684C100.558 40.9408 99.8728 41.127 99.0984 41.127C98.3325 41.127 97.6491 40.9429 97.0481 40.5747C96.4472 40.2065 95.9817 39.6818 95.6517 39.0005C95.3216 38.3149 95.1544 37.5278 95.1502 36.6392V36.1821C95.1502 35.2723 95.3131 34.4725 95.639 33.7827C95.969 33.0887 96.4324 32.5576 97.0291 32.1895C97.63 31.8171 98.3156 31.6309 99.0857 31.6309C99.8559 31.6309 100.539 31.8171 101.136 32.1895C101.737 32.5576 102.2 33.0887 102.526 33.7827C102.856 34.4725 103.021 35.2702 103.021 36.1758V36.5884ZM101.092 36.1694C101.092 35.2004 100.918 34.464 100.571 33.9604C100.224 33.4569 99.729 33.2051 99.0857 33.2051C98.4467 33.2051 97.9537 33.4548 97.6067 33.9541C97.2597 34.4492 97.0841 35.1771 97.0799 36.1377V36.5884C97.0799 37.5321 97.2534 38.2642 97.6004 38.7847C97.9474 39.3052 98.4467 39.5654 99.0984 39.5654C99.7374 39.5654 100.228 39.3158 100.571 38.8164C100.914 38.3128 101.087 37.5807 101.092 36.6201V36.1694ZM112.57 37.9214C112.499 38.9159 112.13 39.6987 111.466 40.27C110.806 40.8413 109.934 41.127 108.851 41.127C107.666 41.127 106.733 40.7292 106.051 39.9336C105.374 39.1338 105.036 38.0378 105.036 36.6455V36.0806C105.036 35.1919 105.192 34.409 105.506 33.7319C105.819 33.0549 106.265 32.5365 106.845 32.1768C107.429 31.8128 108.106 31.6309 108.876 31.6309C109.943 31.6309 110.802 31.9165 111.453 32.4878C112.105 33.0591 112.482 33.861 112.583 34.8936H110.679C110.632 34.2969 110.465 33.8652 110.177 33.5986C109.894 33.3278 109.46 33.1924 108.876 33.1924C108.241 33.1924 107.765 33.4209 107.448 33.8779C107.135 34.3307 106.974 35.0353 106.965 35.9917V36.6899C106.965 37.6886 107.116 38.4186 107.416 38.8799C107.721 39.3411 108.199 39.5718 108.851 39.5718C109.439 39.5718 109.877 39.4385 110.165 39.1719C110.457 38.901 110.624 38.4842 110.666 37.9214H112.57ZM116.756 41H114.852V31.7578H116.756V41ZM124.769 39.0957H121.43L120.795 41H118.77L122.211 31.7578H123.975L127.435 41H125.41L124.769 39.0957ZM121.944 37.5532H124.255L123.093 34.0938L121.944 37.5532ZM136.089 31.7578V37.8452C136.089 38.8566 135.772 39.6564 135.137 40.2446C134.506 40.8328 133.643 41.127 132.547 41.127C131.468 41.127 130.611 40.8413 129.976 40.27C129.341 39.6987 129.018 38.9137 129.005 37.915V31.7578H130.909V37.8579C130.909 38.4631 131.053 38.9053 131.341 39.1846C131.633 39.4596 132.035 39.5972 132.547 39.5972C133.618 39.5972 134.161 39.0343 134.178 37.9087V31.7578H136.089ZM141.868 34.9443L143.601 31.7578H145.791L143.099 36.3408L145.86 41H143.645L141.868 37.7627L140.09 41H137.875L140.636 36.3408L137.945 31.7578H140.135L141.868 34.9443Z" fill="#1E2C78"/>
<path d="M425.85 41H423.946V31.7578H425.85V41ZM436.047 41H434.142L430.435 34.9189V41H428.531V31.7578H430.435L434.149 37.8516V31.7578H436.047V41ZM444.18 37.2231H440.524V41H438.62V31.7578H444.637V33.3003H440.524V35.687H444.18V37.2231ZM454.244 36.5884C454.244 37.4982 454.083 38.2959 453.761 38.9814C453.44 39.667 452.978 40.196 452.377 40.5684C451.781 40.9408 451.095 41.127 450.321 41.127C449.555 41.127 448.871 40.9429 448.271 40.5747C447.67 40.2065 447.204 39.6818 446.874 39.0005C446.544 38.3149 446.377 37.5278 446.373 36.6392V36.1821C446.373 35.2723 446.536 34.4725 446.861 33.7827C447.191 33.0887 447.655 32.5576 448.251 32.1895C448.852 31.8171 449.538 31.6309 450.308 31.6309C451.078 31.6309 451.762 31.8171 452.358 32.1895C452.959 32.5576 453.423 33.0887 453.749 33.7827C454.079 34.4725 454.244 35.2702 454.244 36.1758V36.5884ZM452.314 36.1694C452.314 35.2004 452.14 34.464 451.793 33.9604C451.446 33.4569 450.951 33.2051 450.308 33.2051C449.669 33.2051 449.176 33.4548 448.829 33.9541C448.482 34.4492 448.306 35.1771 448.302 36.1377V36.5884C448.302 37.5321 448.476 38.2642 448.823 38.7847C449.17 39.3052 449.669 39.5654 450.321 39.5654C450.96 39.5654 451.451 39.3158 451.793 38.8164C452.136 38.3128 452.31 37.5807 452.314 36.6201V36.1694ZM459.959 37.6167H458.442V41H456.537V31.7578H459.972C461.063 31.7578 461.905 32.0011 462.498 32.4878C463.09 32.9744 463.387 33.6621 463.387 34.5508C463.387 35.1813 463.249 35.7082 462.974 36.1313C462.703 36.5503 462.291 36.8846 461.736 37.1343L463.736 40.9111V41H461.692L459.959 37.6167ZM458.442 36.0742H459.978C460.456 36.0742 460.826 35.9536 461.089 35.7124C461.351 35.467 461.482 35.1305 461.482 34.7031C461.482 34.2673 461.357 33.9245 461.108 33.6748C460.862 33.4251 460.484 33.3003 459.972 33.3003H458.442V36.0742ZM468.238 31.7578L470.612 38.4609L472.974 31.7578H475.475V41H473.564V38.4736L473.755 34.1128L471.26 41H469.952L467.464 34.1191L467.654 38.4736V41H465.75V31.7578H468.238ZM483.38 39.0957H480.041L479.406 41H477.381L480.822 31.7578H482.586L486.046 41H484.021L483.38 39.0957ZM480.555 37.5532H482.866L481.704 34.0938L480.555 37.5532ZM494.015 33.3003H491.183V41H489.279V33.3003H486.486V31.7578H494.015V33.3003ZM498.041 41H496.137V31.7578H498.041V41ZM508.314 36.5884C508.314 37.4982 508.153 38.2959 507.832 38.9814C507.51 39.667 507.049 40.196 506.448 40.5684C505.851 40.9408 505.166 41.127 504.391 41.127C503.625 41.127 502.942 40.9429 502.341 40.5747C501.74 40.2065 501.274 39.6818 500.944 39.0005C500.614 38.3149 500.447 37.5278 500.443 36.6392V36.1821C500.443 35.2723 500.606 34.4725 500.932 33.7827C501.262 33.0887 501.725 32.5576 502.322 32.1895C502.923 31.8171 503.608 31.6309 504.378 31.6309C505.149 31.6309 505.832 31.8171 506.429 32.1895C507.03 32.5576 507.493 33.0887 507.819 33.7827C508.149 34.4725 508.314 35.2702 508.314 36.1758V36.5884ZM506.384 36.1694C506.384 35.2004 506.211 34.464 505.864 33.9604C505.517 33.4569 505.022 33.2051 504.378 33.2051C503.739 33.2051 503.246 33.4548 502.899 33.9541C502.552 34.4492 502.377 35.1771 502.373 36.1377V36.5884C502.373 37.5321 502.546 38.2642 502.893 38.7847C503.24 39.3052 503.739 39.5654 504.391 39.5654C505.03 39.5654 505.521 39.3158 505.864 38.8164C506.207 38.3128 506.38 37.5807 506.384 36.6201V36.1694ZM518.123 41H516.219L512.512 34.9189V41H510.608V31.7578H512.512L516.225 37.8516V31.7578H518.123V41Z" fill="#1E2C78"/>
<path d="M101.333 92.9946H97.6766V95.4702H101.968V97H95.7723V87.7578H101.955V89.3003H97.6766V91.5029H101.333V92.9946ZM106.483 87.7578L108.857 94.4609L111.218 87.7578H113.719V97H111.809V94.4736L111.999 90.1128L109.505 97H108.197L105.709 90.1191L105.899 94.4736V97H103.995V87.7578H106.483ZM118.197 93.7437V97H116.292V87.7578H119.898C120.592 87.7578 121.201 87.8848 121.726 88.1387C122.255 88.3926 122.661 88.7544 122.945 89.2241C123.228 89.6896 123.37 90.2207 123.37 90.8174C123.37 91.723 123.059 92.4382 122.437 92.9629C121.819 93.4834 120.962 93.7437 119.866 93.7437H118.197ZM118.197 92.2012H119.898C120.402 92.2012 120.784 92.0827 121.047 91.8457C121.313 91.6087 121.447 91.2702 121.447 90.8301C121.447 90.3773 121.313 90.0112 121.047 89.7319C120.78 89.4526 120.412 89.3088 119.942 89.3003H118.197V92.2012ZM127.498 95.4702H131.542V97H125.594V87.7578H127.498V95.4702ZM140.736 92.5884C140.736 93.4982 140.575 94.2959 140.253 94.9814C139.931 95.667 139.47 96.196 138.869 96.5684C138.273 96.9408 137.587 97.127 136.813 97.127C136.047 97.127 135.363 96.9429 134.762 96.5747C134.161 96.2065 133.696 95.6818 133.366 95.0005C133.036 94.3149 132.869 93.5278 132.864 92.6392V92.1821C132.864 91.2723 133.027 90.4725 133.353 89.7827C133.683 89.0887 134.147 88.5576 134.743 88.1895C135.344 87.8171 136.03 87.6309 136.8 87.6309C137.57 87.6309 138.254 87.8171 138.85 88.1895C139.451 88.5576 139.915 89.0887 140.24 89.7827C140.57 90.4725 140.736 91.2702 140.736 92.1758V92.5884ZM138.806 92.1694C138.806 91.2004 138.632 90.464 138.285 89.9604C137.938 89.4569 137.443 89.2051 136.8 89.2051C136.161 89.2051 135.668 89.4548 135.321 89.9541C134.974 90.4492 134.798 91.1771 134.794 92.1377V92.5884C134.794 93.5321 134.968 94.2642 135.315 94.7847C135.662 95.3052 136.161 95.5654 136.813 95.5654C137.452 95.5654 137.943 95.3158 138.285 94.8164C138.628 94.3128 138.802 93.5807 138.806 92.6201V92.1694ZM145.054 97H143.15V87.7578H145.054V97Z" fill="#1E2C78"/>
<path d="M431.081 94.9214C431.009 95.9159 430.64 96.6987 429.976 97.27C429.316 97.8413 428.444 98.127 427.361 98.127C426.176 98.127 425.243 97.7292 424.562 96.9336C423.884 96.1338 423.546 95.0378 423.546 93.6455V93.0806C423.546 92.1919 423.702 91.409 424.016 90.7319C424.329 90.0549 424.775 89.5365 425.355 89.1768C425.939 88.8128 426.616 88.6309 427.386 88.6309C428.453 88.6309 429.312 88.9165 429.963 89.4878C430.615 90.0591 430.992 90.861 431.093 91.8936H429.189C429.142 91.2969 428.975 90.8652 428.688 90.5986C428.404 90.3278 427.97 90.1924 427.386 90.1924C426.751 90.1924 426.275 90.4209 425.958 90.8779C425.645 91.3307 425.484 92.0353 425.476 92.9917V93.6899C425.476 94.6886 425.626 95.4186 425.926 95.8799C426.231 96.3411 426.709 96.5718 427.361 96.5718C427.949 96.5718 428.387 96.4385 428.675 96.1719C428.967 95.901 429.134 95.4842 429.176 94.9214H431.081ZM440.833 93.5884C440.833 94.4982 440.672 95.2959 440.35 95.9814C440.029 96.667 439.568 97.196 438.967 97.5684C438.37 97.9408 437.684 98.127 436.91 98.127C436.144 98.127 435.461 97.9429 434.86 97.5747C434.259 97.2065 433.793 96.6818 433.463 96.0005C433.133 95.3149 432.966 94.5278 432.962 93.6392V93.1821C432.962 92.2723 433.125 91.4725 433.451 90.7827C433.781 90.0887 434.244 89.5576 434.841 89.1895C435.442 88.8171 436.127 88.6309 436.897 88.6309C437.667 88.6309 438.351 88.8171 438.948 89.1895C439.549 89.5576 440.012 90.0887 440.338 90.7827C440.668 91.4725 440.833 92.2702 440.833 93.1758V93.5884ZM438.903 93.1694C438.903 92.2004 438.73 91.464 438.383 90.9604C438.036 90.4569 437.541 90.2051 436.897 90.2051C436.258 90.2051 435.765 90.4548 435.418 90.9541C435.071 91.4492 434.896 92.1771 434.891 93.1377V93.5884C434.891 94.5321 435.065 95.2642 435.412 95.7847C435.759 96.3052 436.258 96.5654 436.91 96.5654C437.549 96.5654 438.04 96.3158 438.383 95.8164C438.725 95.3128 438.899 94.5807 438.903 93.6201V93.1694ZM445.615 88.7578L447.989 95.4609L450.35 88.7578H452.851V98H450.941V95.4736L451.131 91.1128L448.636 98H447.329L444.841 91.1191L445.031 95.4736V98H443.127V88.7578H445.615ZM457.913 88.7578L460.287 95.4609L462.648 88.7578H465.149V98H463.238V95.4736L463.429 91.1128L460.934 98H459.626L457.138 91.1191L457.329 95.4736V98H455.424V88.7578H457.913ZM474.717 88.7578V94.8452C474.717 95.8566 474.4 96.6564 473.765 97.2446C473.134 97.8328 472.271 98.127 471.175 98.127C470.096 98.127 469.239 97.8413 468.604 97.27C467.97 96.6987 467.646 95.9137 467.633 94.915V88.7578H469.537V94.8579C469.537 95.4631 469.681 95.9053 469.969 96.1846C470.261 96.4596 470.663 96.5972 471.175 96.5972C472.246 96.5972 472.79 96.0343 472.807 94.9087V88.7578H474.717ZM484.704 98H482.8L479.093 91.9189V98H477.189V88.7578H479.093L482.806 94.8516V88.7578H484.704V98ZM489.302 98H487.398V88.7578H489.302V98ZM499.239 94.9214C499.167 95.9159 498.799 96.6987 498.134 97.27C497.474 97.8413 496.602 98.127 495.519 98.127C494.334 98.127 493.401 97.7292 492.72 96.9336C492.043 96.1338 491.704 95.0378 491.704 93.6455V93.0806C491.704 92.1919 491.861 91.409 492.174 90.7319C492.487 90.0549 492.933 89.5365 493.513 89.1768C494.097 88.8128 494.774 88.6309 495.544 88.6309C496.611 88.6309 497.47 88.9165 498.121 89.4878C498.773 90.0591 499.15 90.861 499.251 91.8936H497.347C497.301 91.2969 497.133 90.8652 496.846 90.5986C496.562 90.3278 496.128 90.1924 495.544 90.1924C494.91 90.1924 494.433 90.4209 494.116 90.8779C493.803 91.3307 493.642 92.0353 493.634 92.9917V93.6899C493.634 94.6886 493.784 95.4186 494.084 95.8799C494.389 96.3411 494.867 96.5718 495.519 96.5718C496.107 96.5718 496.545 96.4385 496.833 96.1719C497.125 95.901 497.292 95.4842 497.334 94.9214H499.239ZM506.617 96.0957H503.278L502.643 98H500.618L504.059 88.7578H505.823L509.283 98H507.258L506.617 96.0957ZM503.792 94.5532H506.103L504.941 91.0938L503.792 94.5532ZM517.252 90.3003H514.42V98H512.516V90.3003H509.723V88.7578H517.252V90.3003ZM521.278 98H519.374V88.7578H521.278V98ZM531.551 93.5884C531.551 94.4982 531.39 95.2959 531.069 95.9814C530.747 96.667 530.286 97.196 529.685 97.5684C529.088 97.9408 528.403 98.127 527.628 98.127C526.862 98.127 526.179 97.9429 525.578 97.5747C524.977 97.2065 524.511 96.6818 524.181 96.0005C523.851 95.3149 523.684 94.5278 523.68 93.6392V93.1821C523.68 92.2723 523.843 91.4725 524.169 90.7827C524.499 90.0887 524.962 89.5576 525.559 89.1895C526.16 88.8171 526.845 88.6309 527.615 88.6309C528.386 88.6309 529.069 88.8171 529.666 89.1895C530.267 89.5576 530.73 90.0887 531.056 90.7827C531.386 91.4725 531.551 92.2702 531.551 93.1758V93.5884ZM529.621 93.1694C529.621 92.2004 529.448 91.464 529.101 90.9604C528.754 90.4569 528.259 90.2051 527.615 90.2051C526.976 90.2051 526.483 90.4548 526.136 90.9541C525.789 91.4492 525.614 92.1771 525.61 93.1377V93.5884C525.61 94.5321 525.783 95.2642 526.13 95.7847C526.477 96.3052 526.976 96.5654 527.628 96.5654C528.267 96.5654 528.758 96.3158 529.101 95.8164C529.444 95.3128 529.617 94.5807 529.621 93.6201V93.1694ZM541.36 98H539.456L535.749 91.9189V98H533.845V88.7578H535.749L539.462 94.8516V88.7578H541.36V98Z" fill="#1E2C78"/>
<path d="M71.219 151.223H67.5628V155H65.6585V145.758H71.6761V147.3H67.5628V149.687H71.219V151.223ZM81.2823 150.588C81.2823 151.498 81.1215 152.296 80.7999 152.981C80.4783 153.667 80.017 154.196 79.4161 154.568C78.8195 154.941 78.1339 155.127 77.3595 155.127C76.5935 155.127 75.9101 154.943 75.3092 154.575C74.7083 154.207 74.2428 153.682 73.9127 153C73.5826 152.315 73.4155 151.528 73.4113 150.639V150.182C73.4113 149.272 73.5742 148.472 73.9 147.783C74.2301 147.089 74.6935 146.558 75.2902 146.189C75.8911 145.817 76.5766 145.631 77.3468 145.631C78.117 145.631 78.8004 145.817 79.3971 146.189C79.998 146.558 80.4614 147.089 80.7872 147.783C81.1173 148.472 81.2823 149.27 81.2823 150.176V150.588ZM79.3527 150.169C79.3527 149.2 79.1792 148.464 78.8322 147.96C78.4851 147.457 77.99 147.205 77.3468 147.205C76.7078 147.205 76.2148 147.455 75.8678 147.954C75.5208 148.449 75.3452 149.177 75.3409 150.138V150.588C75.3409 151.532 75.5144 152.264 75.8615 152.785C76.2085 153.305 76.7078 153.565 77.3595 153.565C77.9985 153.565 78.4894 153.316 78.8322 152.816C79.1749 152.313 79.3484 151.581 79.3527 150.62V150.169ZM86.9975 151.617H85.4804V155H83.5761V145.758H87.0102C88.102 145.758 88.9441 146.001 89.5366 146.488C90.129 146.974 90.4253 147.662 90.4253 148.551C90.4253 149.181 90.2877 149.708 90.0127 150.131C89.7418 150.55 89.3292 150.885 88.7749 151.134L90.7744 154.911V155H88.7304L86.9975 151.617ZM85.4804 150.074H87.0166C87.4948 150.074 87.865 149.954 88.1274 149.712C88.3898 149.467 88.521 149.131 88.521 148.703C88.521 148.267 88.3961 147.924 88.1464 147.675C87.901 147.425 87.5223 147.3 87.0102 147.3H85.4804V150.074ZM95.2771 145.758L97.6512 152.461L100.012 145.758H102.513V155H100.603V152.474L100.793 148.113L98.2986 155H96.991L94.5027 148.119L94.6932 152.474V155H92.7889V145.758H95.2771ZM110.419 153.096H107.08L106.445 155H104.42L107.86 145.758H109.625L113.085 155H111.06L110.419 153.096ZM107.594 151.553H109.904L108.743 148.094L107.594 151.553ZM121.053 147.3H118.222V155H116.318V147.3H113.525V145.758H121.053V147.3ZM125.08 155H123.176V145.758H125.08V155ZM135.353 150.588C135.353 151.498 135.192 152.296 134.87 152.981C134.549 153.667 134.087 154.196 133.486 154.568C132.89 154.941 132.204 155.127 131.43 155.127C130.664 155.127 129.98 154.943 129.38 154.575C128.779 154.207 128.313 153.682 127.983 153C127.653 152.315 127.486 151.528 127.482 150.639V150.182C127.482 149.272 127.645 148.472 127.97 147.783C128.3 147.089 128.764 146.558 129.361 146.189C129.961 145.817 130.647 145.631 131.417 145.631C132.187 145.631 132.871 145.817 133.467 146.189C134.068 146.558 134.532 147.089 134.858 147.783C135.188 148.472 135.353 149.27 135.353 150.176V150.588ZM133.423 150.169C133.423 149.2 133.25 148.464 132.902 147.96C132.555 147.457 132.06 147.205 131.417 147.205C130.778 147.205 130.285 147.455 129.938 147.954C129.591 148.449 129.416 149.177 129.411 150.138V150.588C129.411 151.532 129.585 152.264 129.932 152.785C130.279 153.305 130.778 153.565 131.43 153.565C132.069 153.565 132.56 153.316 132.902 152.816C133.245 152.313 133.419 151.581 133.423 150.62V150.169ZM145.162 155H143.258L139.551 148.919V155H137.646V145.758H139.551L143.264 151.852V145.758H145.162V155Z" fill="#1E2C78"/>
<path d="M427.24 152.708L429.335 145.758H431.455L428.237 155H426.25L423.044 145.758H425.158L427.24 152.708ZM435.266 155H433.362V145.758H435.266V155ZM443.507 150.995H439.851V153.47H444.142V155H437.947V145.758H444.13V147.3H439.851V149.503H443.507V150.995ZM455.877 150.995H452.221V153.47H456.512V155H450.317V145.758H456.499V147.3H452.221V149.503H455.877V150.995ZM453.89 143.263H455.89L454.132 145.231H452.64L453.89 143.263ZM465.795 151.921C465.723 152.916 465.355 153.699 464.69 154.27C464.03 154.841 463.158 155.127 462.075 155.127C460.89 155.127 459.957 154.729 459.276 153.934C458.599 153.134 458.26 152.038 458.26 150.646V150.081C458.26 149.192 458.417 148.409 458.73 147.732C459.043 147.055 459.489 146.536 460.069 146.177C460.653 145.813 461.33 145.631 462.1 145.631C463.167 145.631 464.026 145.917 464.677 146.488C465.329 147.059 465.706 147.861 465.807 148.894H463.903C463.856 148.297 463.689 147.865 463.402 147.599C463.118 147.328 462.684 147.192 462.1 147.192C461.466 147.192 460.989 147.421 460.672 147.878C460.359 148.331 460.198 149.035 460.19 149.992V150.69C460.19 151.689 460.34 152.419 460.64 152.88C460.945 153.341 461.423 153.572 462.075 153.572C462.663 153.572 463.101 153.438 463.389 153.172C463.681 152.901 463.848 152.484 463.89 151.921H465.795ZM475.547 150.588C475.547 151.498 475.386 152.296 475.064 152.981C474.743 153.667 474.282 154.196 473.681 154.568C473.084 154.941 472.398 155.127 471.624 155.127C470.858 155.127 470.175 154.943 469.574 154.575C468.973 154.207 468.507 153.682 468.177 153C467.847 152.315 467.68 151.528 467.676 150.639V150.182C467.676 149.272 467.839 148.472 468.165 147.783C468.495 147.089 468.958 146.558 469.555 146.189C470.156 145.817 470.841 145.631 471.611 145.631C472.382 145.631 473.065 145.817 473.662 146.189C474.263 146.558 474.726 147.089 475.052 147.783C475.382 148.472 475.547 149.27 475.547 150.176V150.588ZM473.617 150.169C473.617 149.2 473.444 148.464 473.097 147.96C472.75 147.457 472.255 147.205 471.611 147.205C470.972 147.205 470.479 147.455 470.132 147.954C469.785 148.449 469.61 149.177 469.606 150.138V150.588C469.606 151.532 469.779 152.264 470.126 152.785C470.473 153.305 470.972 153.565 471.624 153.565C472.263 153.565 472.754 153.316 473.097 152.816C473.439 152.313 473.613 151.581 473.617 150.62V150.169ZM485.356 155H483.452L479.745 148.919V155H477.841V145.758H479.745L483.458 151.852V145.758H485.356V155ZM495.521 150.588C495.521 151.498 495.36 152.296 495.039 152.981C494.717 153.667 494.256 154.196 493.655 154.568C493.058 154.941 492.373 155.127 491.598 155.127C490.832 155.127 490.149 154.943 489.548 154.575C488.947 154.207 488.482 153.682 488.152 153C487.822 152.315 487.654 151.528 487.65 150.639V150.182C487.65 149.272 487.813 148.472 488.139 147.783C488.469 147.089 488.932 146.558 489.529 146.189C490.13 145.817 490.815 145.631 491.586 145.631C492.356 145.631 493.039 145.817 493.636 146.189C494.237 146.558 494.7 147.089 495.026 147.783C495.356 148.472 495.521 149.27 495.521 150.176V150.588ZM493.592 150.169C493.592 149.2 493.418 148.464 493.071 147.96C492.724 147.457 492.229 147.205 491.586 147.205C490.947 147.205 490.454 147.455 490.107 147.954C489.76 148.449 489.584 149.177 489.58 150.138V150.588C489.58 151.532 489.753 152.264 490.1 152.785C490.447 153.305 490.947 153.565 491.598 153.565C492.237 153.565 492.728 153.316 493.071 152.816C493.414 152.313 493.587 151.581 493.592 150.62V150.169ZM500.303 145.758L502.677 152.461L505.039 145.758H507.54V155H505.629V152.474L505.819 148.113L503.325 155H502.017L499.529 148.119L499.719 152.474V155H497.815V145.758H500.303ZM512.138 155H510.233V145.758H512.138V155ZM522.398 150.588C522.398 151.452 522.258 152.203 521.979 152.842C521.699 153.477 521.312 153.986 520.817 154.372L522.353 155.578L521.141 156.65L519.173 155.07C518.949 155.108 518.716 155.127 518.475 155.127C517.709 155.127 517.025 154.943 516.425 154.575C515.824 154.207 515.358 153.682 515.028 153C514.698 152.315 514.531 151.528 514.527 150.639V150.182C514.527 149.272 514.69 148.472 515.015 147.783C515.345 147.089 515.809 146.558 516.406 146.189C517.006 145.817 517.692 145.631 518.462 145.631C519.232 145.631 519.916 145.817 520.512 146.189C521.113 146.558 521.577 147.089 521.903 147.783C522.233 148.472 522.398 149.27 522.398 150.176V150.588ZM520.468 150.169C520.468 149.2 520.295 148.464 519.948 147.96C519.6 147.457 519.105 147.205 518.462 147.205C517.823 147.205 517.33 147.455 516.983 147.954C516.636 148.449 516.461 149.177 516.456 150.138V150.588C516.456 151.532 516.63 152.264 516.977 152.785C517.324 153.305 517.823 153.565 518.475 153.565C519.114 153.565 519.605 153.316 519.948 152.816C520.29 152.313 520.464 151.581 520.468 150.62V150.169ZM531.699 145.758V151.845C531.699 152.857 531.382 153.656 530.747 154.245C530.117 154.833 529.253 155.127 528.157 155.127C527.078 155.127 526.221 154.841 525.587 154.27C524.952 153.699 524.628 152.914 524.615 151.915V145.758H526.52V151.858C526.52 152.463 526.663 152.905 526.951 153.185C527.243 153.46 527.645 153.597 528.157 153.597C529.228 153.597 529.772 153.034 529.789 151.909V145.758H531.699ZM539.731 150.995H536.075V153.47H540.366V155H534.171V145.758H540.353V147.3H536.075V149.503H539.731V150.995Z" fill="#1E2C78"/>
<path d="M212.143 18.0957H208.804L208.169 20H206.144L209.585 10.7578H211.349L214.809 20H212.784L212.143 18.0957ZM209.318 16.5532H211.629L210.467 13.0938L209.318 16.5532ZM223.698 16.9214C223.626 17.9159 223.258 18.6987 222.593 19.27C221.933 19.8413 221.062 20.127 219.978 20.127C218.793 20.127 217.86 19.7292 217.179 18.9336C216.502 18.1338 216.163 17.0378 216.163 15.6455V15.0806C216.163 14.1919 216.32 13.409 216.633 12.7319C216.946 12.0549 217.393 11.5365 217.972 11.1768C218.556 10.8128 219.233 10.6309 220.004 10.6309C221.07 10.6309 221.929 10.9165 222.581 11.4878C223.232 12.0591 223.609 12.861 223.711 13.8936H221.806C221.76 13.2969 221.593 12.8652 221.305 12.5986C221.021 12.3278 220.588 12.1924 220.004 12.1924C219.369 12.1924 218.893 12.4209 218.575 12.8779C218.262 13.3307 218.101 14.0353 218.093 14.9917V15.6899C218.093 16.6886 218.243 17.4186 218.544 17.8799C218.848 18.3411 219.327 18.5718 219.978 18.5718C220.566 18.5718 221.004 18.4385 221.292 18.1719C221.584 17.901 221.751 17.4842 221.794 16.9214H223.698ZM233.114 16.9214C233.042 17.9159 232.674 18.6987 232.009 19.27C231.349 19.8413 230.477 20.127 229.394 20.127C228.209 20.127 227.276 19.7292 226.595 18.9336C225.918 18.1338 225.579 17.0378 225.579 15.6455V15.0806C225.579 14.1919 225.736 13.409 226.049 12.7319C226.362 12.0549 226.808 11.5365 227.388 11.1768C227.972 10.8128 228.649 10.6309 229.419 10.6309C230.486 10.6309 231.345 10.9165 231.997 11.4878C232.648 12.0591 233.025 12.861 233.127 13.8936H231.222C231.176 13.2969 231.009 12.8652 230.721 12.5986C230.437 12.3278 230.003 12.1924 229.419 12.1924C228.785 12.1924 228.309 12.4209 227.991 12.8779C227.678 13.3307 227.517 14.0353 227.509 14.9917V15.6899C227.509 16.6886 227.659 17.4186 227.96 17.8799C228.264 18.3411 228.742 18.5718 229.394 18.5718C229.982 18.5718 230.42 18.4385 230.708 18.1719C231 17.901 231.167 17.4842 231.21 16.9214H233.114ZM240.835 15.9946H237.179V18.4702H241.47V20H235.274V10.7578H241.457V12.3003H237.179V14.5029H240.835V15.9946ZM239.394 10.231H237.89L236.138 8.26318H238.137L239.394 10.231ZM248.289 17.5752C248.289 17.2155 248.162 16.9404 247.908 16.75C247.655 16.5553 247.197 16.3522 246.537 16.1406C245.877 15.9248 245.355 15.7132 244.969 15.5059C243.92 14.9388 243.395 14.175 243.395 13.2144C243.395 12.715 243.535 12.2707 243.814 11.8813C244.098 11.4878 244.502 11.181 245.027 10.9609C245.556 10.7409 246.148 10.6309 246.804 10.6309C247.464 10.6309 248.052 10.7515 248.569 10.9927C249.085 11.2297 249.485 11.5661 249.768 12.002C250.056 12.4378 250.2 12.9329 250.2 13.4873H248.296C248.296 13.0641 248.162 12.7362 247.896 12.5034C247.629 12.2664 247.255 12.1479 246.772 12.1479C246.307 12.1479 245.945 12.2474 245.687 12.4463C245.429 12.641 245.3 12.8991 245.3 13.2207C245.3 13.5212 245.45 13.7729 245.75 13.9761C246.055 14.1792 246.501 14.3696 247.09 14.5474C248.173 14.8732 248.962 15.2773 249.457 15.7598C249.952 16.2422 250.2 16.8431 250.2 17.5625C250.2 18.3623 249.897 18.9907 249.292 19.4478C248.687 19.9006 247.872 20.127 246.848 20.127C246.137 20.127 245.49 19.9979 244.906 19.7397C244.322 19.4774 243.876 19.1198 243.567 18.667C243.262 18.2142 243.11 17.6895 243.11 17.0928H245.02C245.02 18.1126 245.63 18.6226 246.848 18.6226C247.301 18.6226 247.655 18.5316 247.908 18.3496C248.162 18.1634 248.289 17.9053 248.289 17.5752ZM261.77 18.0957H258.431L257.796 20H255.771L259.212 10.7578H260.976L264.436 20H262.411L261.77 18.0957ZM258.945 16.5532H261.256L260.094 13.0938L258.945 16.5532ZM261.034 10.25H259.529L257.777 8.28223H259.777L261.034 10.25ZM272.261 18.4702H276.304V20H270.357V10.7578H272.261V18.4702ZM283.657 18.0957H280.318L279.684 20H277.659L281.099 10.7578H282.864L286.323 20H284.298L283.657 18.0957ZM280.832 16.5532H283.143L281.981 13.0938L280.832 16.5532ZM299.499 16.9214C299.427 17.9159 299.059 18.6987 298.395 19.27C297.734 19.8413 296.863 20.127 295.779 20.127C294.595 20.127 293.661 19.7292 292.98 18.9336C292.303 18.1338 291.964 17.0378 291.964 15.6455V15.0806C291.964 14.1919 292.121 13.409 292.434 12.7319C292.747 12.0549 293.194 11.5365 293.774 11.1768C294.358 10.8128 295.035 10.6309 295.805 10.6309C296.871 10.6309 297.73 10.9165 298.382 11.4878C299.034 12.0591 299.41 12.861 299.512 13.8936H297.608C297.561 13.2969 297.394 12.8652 297.106 12.5986C296.823 12.3278 296.389 12.1924 295.805 12.1924C295.17 12.1924 294.694 12.4209 294.377 12.8779C294.063 13.3307 293.903 14.0353 293.894 14.9917V15.6899C293.894 16.6886 294.044 17.4186 294.345 17.8799C294.65 18.3411 295.128 18.5718 295.779 18.5718C296.368 18.5718 296.806 18.4385 297.093 18.1719C297.385 17.901 297.553 17.4842 297.595 16.9214H299.499ZM308.655 10.7578V16.8452C308.655 17.8566 308.337 18.6564 307.703 19.2446C307.072 19.8328 306.209 20.127 305.113 20.127C304.034 20.127 303.177 19.8413 302.542 19.27C301.907 18.6987 301.583 17.9137 301.571 16.915V10.7578H303.475V16.8579C303.475 17.4631 303.619 17.9053 303.907 18.1846C304.199 18.4596 304.601 18.5972 305.113 18.5972C306.183 18.5972 306.727 18.0343 306.744 16.9087V10.7578H308.655ZM313.031 18.4702H317.074V20H311.126V10.7578H313.031V18.4702ZM324.732 12.3003H321.901V20H319.996V12.3003H317.203V10.7578H324.732V12.3003ZM333.728 10.7578V16.8452C333.728 17.8566 333.411 18.6564 332.776 19.2446C332.146 19.8328 331.283 20.127 330.186 20.127C329.107 20.127 328.25 19.8413 327.616 19.27C326.981 18.6987 326.657 17.9137 326.644 16.915V10.7578H328.549V16.8579C328.549 17.4631 328.693 17.9053 328.98 18.1846C329.272 18.4596 329.674 18.5972 330.186 18.5972C331.257 18.5972 331.801 18.0343 331.818 16.9087V10.7578H333.728ZM339.621 16.6167H338.104V20H336.2V10.7578H339.634C340.726 10.7578 341.568 11.0011 342.16 11.4878C342.753 11.9744 343.049 12.6621 343.049 13.5508C343.049 14.1813 342.912 14.7082 342.637 15.1313C342.366 15.5503 341.953 15.8846 341.399 16.1343L343.398 19.9111V20H341.354L339.621 16.6167ZM338.104 15.0742H339.64C340.119 15.0742 340.489 14.9536 340.751 14.7124C341.014 14.467 341.145 14.1305 341.145 13.7031C341.145 13.2673 341.02 12.9245 340.77 12.6748C340.525 12.4251 340.146 12.3003 339.634 12.3003H338.104V15.0742ZM350.973 15.9946H347.317V18.4702H351.608V20H345.413V10.7578H351.595V12.3003H347.317V14.5029H350.973V15.9946Z" fill="#1E2C78"/>
<defs>
<filter id="filter0_d" x="14" y="5" width="551" height="416" filterUnits="userSpaceOnUse" color-interpolation-filters="sRGB">
<feFlood flood-opacity="0" result="BackgroundImageFix"/>
<feColorMatrix in="SourceAlpha" type="matrix" values="0 0 0 0 0 0 0 0 0 0 0 0 0 0 0 0 0 0 127 0"/>
<feOffset dx="4" dy="5"/>
<feGaussianBlur stdDeviation="6"/>
<feColorMatrix type="matrix" values="0 0 0 0 0.117647 0 0 0 0 0.172549 0 0 0 0 0.470588 0 0 0 0.2 0"/>
<feBlend mode="normal" in2="BackgroundImageFix" result="effect1_dropShadow"/>
<feBlend mode="normal" in="SourceGraphic" in2="effect1_dropShadow" result="shape"/>
</filter>
<clipPath id="clip0">
<rect width="25.812" height="28.4633" fill="white" transform="translate(251.262 89.6054)"/>
</clipPath>
<clipPath id="clip1">
<rect width="23.004" height="23.1803" fill="white" transform="translate(294.462 94.9962)"/>
</clipPath>
<clipPath id="clip2">
<rect width="35.5946" height="104.329" fill="white" transform="translate(343.779 339.035)"/>
</clipPath>
</defs>
</svg>
