<svg width="15" height="14" viewBox="0 0 15 14" fill="none" xmlns="http://www.w3.org/2000/svg">
<path fill-rule="evenodd" clip-rule="evenodd" d="M12.8426 0.811157H2.15699C1.4193 0.811157 0.821289 1.40164 0.821289 2.13004V12.6811C0.821289 13.4095 1.4193 14 2.15699 14H12.8426C13.5803 14 14.1783 13.4095 14.1783 12.6811V2.13004C14.1783 1.40164 13.5803 0.811157 12.8426 0.811157ZM2.15699 12.6811V2.13001H12.8426V12.6811H2.15699Z" fill="#EC5732"/>
<path d="M8.23828 11H6.75293V6.24512H8.23828V11ZM6.66504 5.01904C6.66504 4.80811 6.74121 4.63525 6.89355 4.50049C7.0459 4.36572 7.24365 4.29834 7.48682 4.29834C7.72998 4.29834 7.92773 4.36572 8.08008 4.50049C8.23242 4.63525 8.30859 4.80811 8.30859 5.01904C8.30859 5.22998 8.23242 5.40283 8.08008 5.5376C7.92773 5.67236 7.72998 5.73975 7.48682 5.73975C7.24365 5.73975 7.0459 5.67236 6.89355 5.5376C6.74121 5.40283 6.66504 5.22998 6.66504 5.01904Z" fill="#EC5732"/>
</svg>
