<svg width="10" height="10" viewBox="0 0 10 10" fill="none" xmlns="http://www.w3.org/2000/svg">
<circle cx="5" cy="5" r="4.5" fill="white" stroke="#989898"/>
<path d="M6.1031 8L5.27693 7.97363C5.15388 7.97363 5.06159 7.9751 5.00007 7.97803L4.80671 7.98682C4.66023 7.99561 4.53132 8 4.41999 8C4.13581 8 3.99372 7.8916 3.99372 7.6748C3.99372 7.56934 4.03767 7.4873 4.12556 7.42871C4.21638 7.37012 4.3365 7.34082 4.48591 7.34082H4.82868V4.47559C4.82868 4.2998 4.7906 4.21191 4.71443 4.21191C4.67927 4.21191 4.62361 4.22217 4.54743 4.24268C4.47419 4.26318 4.3907 4.27344 4.29695 4.27344C4.20612 4.27344 4.12409 4.24268 4.05085 4.18115C3.97761 4.11963 3.94099 4.03613 3.94099 3.93066C3.94099 3.70801 4.09919 3.58057 4.4156 3.54834C4.61189 3.53076 4.77155 3.50439 4.8946 3.46924C5.02058 3.43408 5.14216 3.4165 5.25935 3.4165C5.47907 3.4165 5.58894 3.55713 5.58894 3.83838V7.34082H5.93611C6.30525 7.34082 6.48982 7.45654 6.48982 7.68799C6.48982 7.77002 6.4532 7.84326 6.37995 7.90771C6.30964 7.96924 6.21736 8 6.1031 8ZM5.75153 1.90918C5.75153 2.19336 5.63142 2.37793 5.39118 2.46289C5.3238 2.48633 5.22859 2.49805 5.10554 2.49805C4.98249 2.49805 4.8697 2.44971 4.76716 2.35303C4.66462 2.25635 4.61335 2.13037 4.61335 1.9751C4.61335 1.81982 4.66609 1.69092 4.77155 1.58838C4.87995 1.48584 5.02058 1.43457 5.19343 1.43457C5.36921 1.43457 5.50544 1.48145 5.60212 1.5752C5.70173 1.66602 5.75153 1.77734 5.75153 1.90918Z" fill="#989898"/>
</svg>
