<svg width="107" height="247" viewBox="0 0 107 247" fill="none" xmlns="http://www.w3.org/2000/svg">
<path d="M92.7746 105.159C92.7746 105.159 94.3446 108.751 95.8671 108.32C97.3895 107.889 99.578 107.985 100.292 108.081C101.243 108.176 104.288 107.458 104.098 108.607C103.908 109.757 99.1499 110.044 98.1032 110.283C97.1041 110.523 100.72 113.109 100.958 114.066C101.196 115.072 96.2001 120.771 93.9164 118.711C91.6803 116.652 90.7288 112.965 90.253 112.726C89.7772 112.438 87.7314 109.517 87.7314 109.517L92.7746 105.159Z" fill="#EEA886"/>
<path d="M100.53 113.444C100.53 113.444 106.953 120.148 107.001 120.962C107.001 121.776 106.62 122.111 105.954 121.489C105.336 120.866 99.5313 115.168 99.5313 115.168C99.5313 115.168 105.669 124.41 105.859 125.08C105.954 125.463 105.193 126.134 104.812 125.847C104.432 125.559 97.771 116.748 97.771 116.748C97.771 116.748 103.528 125.416 103.48 125.99C103.433 126.517 102.576 126.996 102.1 126.373C101.625 125.751 95.8203 118.041 95.8203 118.041C95.8203 118.041 99.5789 124.601 99.2459 125.128C99.0556 125.416 98.3895 126.038 97.4855 124.314C96.5816 122.59 93.9648 118.759 93.9648 118.759L100.53 113.444Z" fill="#EEA886"/>
<path d="M12.1802 232.538C12.1802 232.538 9.70624 234.31 8.37409 235.555C6.99437 236.8 5.13887 238.141 3.99703 241.302C2.85519 244.51 4.66311 246.809 7.75559 247C10.8481 247.192 15.5582 244.845 16.0339 242.02C16.5097 239.195 20.1255 239.53 20.6013 237.519C21.0771 235.507 20.4586 233.065 20.4586 233.065L12.1802 232.538Z" fill="#C4C6D1"/>
<path d="M12.6079 230.192L12.1797 232.538C12.1797 232.538 13.4643 234.885 20.3629 233.065L19.9823 230.767L12.6079 230.192Z" fill="#EEA886"/>
<path d="M20.4107 233.065C20.4107 233.065 18.8407 233.257 17.7464 233.448C16.6522 233.64 14.4161 232.203 12.2275 232.538L12.8936 235.364C12.846 235.364 20.2204 233.975 20.4107 233.065Z" fill="#C4C6D1"/>
<path d="M56.4262 232.538C56.4262 232.538 58.9001 234.31 60.2323 235.555C61.612 236.8 63.4675 238.141 64.6094 241.302C65.7512 244.51 63.9433 246.809 60.8508 247C57.7583 247.192 53.0482 244.845 52.5724 242.02C52.0967 239.195 48.4808 239.53 48.0051 237.519C47.5293 235.507 48.1478 233.065 48.1478 233.065L56.4262 232.538Z" fill="#C4C6D1"/>
<path d="M56.046 230.192L56.4742 232.538C56.4742 232.538 55.1896 234.885 48.291 233.065L48.6716 230.767L56.046 230.192Z" fill="#EEA886"/>
<path d="M58.9956 175.984C58.9956 181.108 56.9974 229.665 56.9974 229.665C56.4741 231.389 49.623 231.293 47.9103 230.431C46.1975 229.569 46.5305 181.778 46.1975 176.654C45.8645 171.483 41.7729 133.604 40.298 133.748C38.8231 133.939 30.4496 169.615 29.2602 173.542C28.0708 177.469 21.2673 230.431 21.2673 230.431C15.4629 232.443 11.752 230.431 11.752 230.431C11.752 230.431 13.9405 177.038 13.9881 170.717C13.9881 168.37 14.7017 166.598 15.3202 154.1C15.8436 144.57 18.4603 125.033 20.2206 111.576C20.3158 110.906 20.9343 106.117 21.2197 104.106C30.402 99.8441 49.4327 101.855 58.9956 103.771L59.8044 110.571C60.6608 117.85 61.0414 121.872 61.7075 129.63C61.7551 131.354 58.9956 170.908 58.9956 175.984Z" fill="#3A557A"/>
<path d="M47.7675 35.101C47.7675 35.101 68.0828 39.4587 69.748 45.1093C71.4607 50.8079 74.7435 64.1204 79.3109 78.6301C82.0227 87.2976 95.9151 107.075 95.9151 107.075C95.9151 107.075 88.0174 112.965 88.0174 112.151C88.0174 111.337 69.3198 86.1962 69.0819 83.1314C68.844 80.0667 63.1824 64.4077 63.1824 64.4077C63.1824 64.4077 60.5181 94.5285 60.5181 99.2214C60.5181 103.866 60.8035 113.3 60.8035 113.3C60.8035 113.3 53.2864 116.221 38.6804 115.455C38.6804 115.455 15.4154 114.641 19.4118 107.506C22.4091 102.095 20.5536 65.8443 20.1255 65.6049C19.6973 65.3655 11.5617 75.6132 12.3705 77.5766C13.1793 79.5399 34.113 86.5793 34.113 86.5793C34.113 86.5793 34.7315 88.83 31.4487 94.0017C31.4487 94.0017 0.143245 84.8075 0.00051445 82.8441C-0.0946389 80.9287 13.0365 43.4333 17.3184 41.47C23.5034 38.6446 39.6319 34.1912 39.6319 34.1912L47.7675 35.101Z" fill="#EDDAD3"/>
<path d="M48.2432 233.065C48.2432 233.065 49.8132 233.257 50.9075 233.448C52.0017 233.64 54.2378 232.203 56.4264 232.538L55.7603 235.364C55.7603 235.364 48.3859 233.975 48.2432 233.065Z" fill="#C4C6D1"/>
<path d="M47.4345 27.966C47.4345 27.966 46.5781 32.5632 48.0529 35.7237C48.0529 35.7237 49.5278 43.0504 42.0583 43.3856C34.5887 43.7208 34.3984 36.9687 34.3984 36.9687C34.3984 36.9687 36.2064 34.5744 34.9694 27.966C33.8275 21.4534 47.4345 27.966 47.4345 27.966Z" fill="#EEA886"/>
<path d="M42.9142 1.29306C42.9142 1.29306 52.4771 2.82544 51.0023 18.245C49.5274 33.6645 41.1063 32.3716 40.5354 32.3716C39.9645 32.3716 32.0667 32.6589 31.4482 13.8394C31.4958 13.8873 31.2104 -0.0477699 42.9142 1.29306Z" fill="#EEA886"/>
<path d="M51.1454 13.9351C51.1454 13.9351 52.1921 12.7858 52.5727 13.9351C52.9533 15.0844 51.193 20.1125 51.0978 20.5435C51.0978 20.5435 50.9075 20.9745 50.6696 20.735C50.4318 20.4956 51.1454 13.9351 51.1454 13.9351Z" fill="#EEA886"/>
<path d="M31.7342 13.7435C31.7342 13.7435 30.6875 12.5942 30.3069 13.7435C29.8787 14.8927 31.5914 20.2082 31.6866 20.3997C31.6866 20.3997 31.8769 20.8307 32.1148 20.5913C32.3527 20.3039 31.7342 13.7435 31.7342 13.7435Z" fill="#EEA886"/>
<path d="M51.1462 16.2815L49.7665 18.1491C49.7665 18.1491 49.8141 14.0309 49.5762 13.3605C49.3383 12.69 49.8141 10.4394 49.6714 10.0084C49.4811 9.52951 43.1534 11.3013 32.7341 10.1999C32.7341 10.1999 33.8759 13.9351 33.2098 14.1745C32.5437 14.4618 32.8768 19.0111 32.8768 19.0111L31.7349 17.7182C31.7349 17.7182 30.4504 9.91261 30.5931 8.61966C30.7358 6.89574 30.1649 -1.24501 44.8185 0.143703C48.7198 0.526797 52.5735 3.68732 52.3832 7.56615C52.1929 10.9182 51.1462 16.2815 51.1462 16.2815Z" fill="#434343"/>
<path d="M36.2061 30.3604C36.2061 30.3604 40.1549 35.0054 46.3875 30.3604C46.3875 30.3604 44.6271 33.8561 40.9637 33.9519C37.3003 34.0476 36.2061 30.3604 36.2061 30.3604Z" fill="#A77860"/>
<path d="M47.7098 61.7977L18.1924 53.1731L5.28614 97.9218L34.8036 106.546L47.7098 61.7977Z" fill="#6E6760"/>
<path d="M39.584 86.2442C39.584 86.2442 41.5346 86.1963 42.1056 86.1005C42.6765 86.0047 42.2959 87.2977 41.6298 87.5371C40.9161 87.7766 39.584 86.2442 39.584 86.2442Z" fill="#C98462"/>
<path d="M40.7268 95.5343C40.7268 95.5343 39.8704 95.7258 39.4898 95.6301C39.4898 95.6301 38.7762 95.3906 38.2053 95.2949C38.015 95.247 37.8722 95.247 37.7771 95.1991C37.3489 95.1512 36.4449 95.1991 35.4934 94.816C34.5419 94.4329 31.3066 92.7569 31.3066 92.7569L32.2106 89.74L32.9242 87.3457C32.9242 87.3457 38.3956 85.8612 39.2995 86.1485C39.3947 86.1964 39.4898 86.1964 39.5374 86.2443C40.2986 86.5316 40.7744 87.0583 41.155 87.2499C41.2977 87.3457 42.6299 88.1597 42.725 88.5907C42.8202 89.2611 42.6299 89.74 42.2969 90.0273C42.2969 90.0273 42.4396 91.3203 41.9638 92.0386C41.9638 92.0386 42.1066 93.2357 41.2977 93.954C41.2977 93.954 41.3453 95.1991 40.7268 95.5343Z" fill="#EEA886"/>
<path d="M34.0661 86.5791C34.0661 86.5791 34.3515 90.458 31.4018 94.0016C31.4018 94.0016 8.42224 86.7707 5.66279 85.7172C2.90334 84.6158 15.6063 50.6641 15.6063 50.6641L24.9314 53.8725L19.9834 63.4019C19.9834 63.4019 17.5094 68.7653 12.3235 77.5285C12.3235 77.5285 15.5112 80.5933 34.0661 86.5791Z" fill="#EDDAD3"/>
<path d="M29.307 78.0556C29.307 80.5936 27.5943 82.6528 25.4533 82.6528C23.3124 82.6528 21.5996 80.5936 21.5996 78.0556C21.5996 75.5176 23.3124 73.4585 25.4533 73.4585C27.5943 73.4585 29.307 75.5176 29.307 78.0556Z" fill="#807066"/>
<path d="M50.2894 40.4644L48.1484 33.7124C48.1484 33.7124 44.7229 35.2927 34.8269 34.1913L32.5908 40.656C32.5908 40.656 41.107 48.0784 50.2894 40.4644Z" fill="#EDDAD3"/>
</svg>
