<svg width="96" height="221" viewBox="0 0 96 221" fill="none" xmlns="http://www.w3.org/2000/svg">
<path d="M26.4198 48.0733C25.612 46.5198 43.9353 40.9098 44.2275 56.2726C44.2275 56.2726 78.5538 55.4267 62.1728 36.2146C56.5004 29.5689 57.0849 24.0625 57.2567 18.9358C57.4286 13.8091 53.7158 -1.07041 41.0132 0.431348C41.0132 0.431348 37.6786 -0.932317 33.5361 1.24264C24.0822 6.14493 2.92261 53.7351 26.4198 48.0733Z" fill="#070707"/>
<path d="M82.541 65.2313C82.541 65.2313 84.7756 61.8135 86.5804 61.7445C88.3852 61.6755 91.7199 60.7433 91.4449 61.4165C91.1698 62.0897 89.1072 62.1588 88.9181 62.5558C88.7118 62.9528 91.9949 63.557 92.9231 63.626C93.8513 63.6951 96.0515 63.626 95.9999 64.0921C95.9312 64.5581 92.0293 66.5087 89.2791 66.2325C86.5288 65.9563 83.1254 67.0438 83.1254 67.0438L82.541 65.2313Z" fill="#FFAE73"/>
<path d="M83.5557 69.1499C83.5557 69.1499 78.8631 75.5539 72.6235 78.3331C72.6235 78.3331 72.6235 78.3331 72.6063 78.3331C70.4061 79.317 67.9997 79.8521 65.5417 79.4896C63.754 79.2307 62.1039 78.592 60.5913 77.7289C57.7379 76.1063 55.4002 73.707 53.6641 71.532C53.1485 70.8761 52.6672 70.2374 52.2718 69.6505C50.9655 67.7517 50.2607 66.3363 50.2607 66.3363L51.8421 39.063C51.8421 39.063 57.5316 40.3921 59.199 42.9296C60.8663 45.4843 67.8622 65.7321 69.0654 66.3363C70.2686 66.9404 82.8681 64.0923 82.8681 64.0923C82.8681 64.0923 84.6557 66.1291 83.5557 69.1499Z" fill="#FBE5E7"/>
<path d="M3.19732 203.013C3.19732 203.013 -0.652997 206.535 0.103315 209.038C0.859626 211.54 4.33178 213.215 4.79588 216.27C5.25998 219.325 7.13358 221 8.83528 221C10.5198 221 16.8797 221 16.8797 221C16.8797 221 18.1173 218.842 15.1264 218.203C12.1184 217.548 10.9839 213.957 11.173 210.608C11.362 207.277 10.8979 202.823 10.8979 202.823L4.52086 201.339L3.19732 203.013Z" fill="#1E3865"/>
<path d="M35.7532 204.498C35.7532 204.498 34.3609 219.429 36.0626 220.275L57.669 220.223C57.669 220.223 57.669 217.72 54.1969 217.168C50.7247 216.615 44.6227 214.579 43.5913 210.022C42.56 205.482 35.7532 204.498 35.7532 204.498Z" fill="#1E3865"/>
<path d="M60.5734 77.7287C57.72 76.1061 55.3823 73.7068 53.6462 71.5318C53.1305 70.8759 52.6493 70.2372 52.2539 69.6503C53.4399 63.9885 55.1932 56.2208 54.8151 61.1403C54.3166 67.5271 59.2842 75.7091 60.5734 77.7287Z" fill="#78A2DC"/>
<path d="M20.3517 97.3553C24.8036 87.3436 27.5195 84.4609 27.0038 81.3538C26.6257 79.0408 28.1899 38.2171 28.1899 38.2171C28.7227 38.0445 29.7712 37.9064 30.3557 37.7683C32.1777 37.354 33.6903 36.0767 34.3263 34.2987C35.0826 32.1756 35.6842 29.034 35.667 25.0811L36.2343 25.2019L45.8085 27.1007C45.8085 27.1007 45.585 30.1214 45.585 32.9869C45.585 33.0041 45.585 33.0386 45.585 33.0559C45.5678 35.5416 47.1836 37.7165 49.5557 38.407C50.7589 38.7522 51.8246 39.0629 51.8246 39.0629C51.8246 39.0629 55.3483 49.1437 56.0187 59.5179C56.689 69.8749 49.6244 74.3801 56.0702 95.094C62.6364 116.222 17.8937 102.879 20.3517 97.3553Z" fill="#FFAE73"/>
<path d="M45.8086 27.1007C45.8086 27.1007 45.5851 30.1215 45.5851 32.9869C40.2222 32.8315 37.386 27.9292 36.2344 25.2019L45.8086 27.1007Z" fill="#F48F4E"/>
<path d="M47.596 29.8105C47.596 29.8105 34.9106 30.0177 34.9106 22.0946C34.8934 14.1543 33.2604 8.83774 41.3564 8.37168C49.4524 7.90561 51.0338 10.9264 51.6697 13.5674C52.3057 16.2084 50.8962 29.5516 47.596 29.8105Z" fill="#FFAE73"/>
<path d="M47.1148 8.16457C47.1148 8.16457 43.6427 17.4686 38.3141 18.8495C32.9855 20.2304 30.665 18.7977 30.665 18.7977C30.665 18.7977 34.7732 15.5353 35.6154 9.83895C35.6154 9.83895 44.5021 3.74561 47.1148 8.16457Z" fill="black"/>
<path d="M46.2559 8.92424C46.2559 8.92424 48.8342 9.89089 49.8827 11.7724C50.914 13.6194 51.8079 16.0533 51.6016 19.0568C51.6016 19.0568 54.2143 12.7218 51.275 9.14864C48.1638 5.3511 46.2559 8.92424 46.2559 8.92424Z" fill="black"/>
<path d="M44.8291 24.8911C44.8291 24.8911 45.7057 26.0476 47.459 25.9613C48.8685 25.8922 49.4185 24.6667 49.4185 24.6667C49.4185 24.6667 46.823 24.028 44.8291 24.8911Z" fill="#E8F2FA"/>
<path d="M19.1315 56.2725C19.1315 56.2725 18.8049 60.8296 19.1315 66.3015C19.3377 69.9264 22.999 74.7942 23.5146 75.9852C24.821 79.006 26.2821 79.4893 26.2821 79.4893L37.6267 82.2857L41.6146 83.2696L54.1968 79.4893C54.1968 79.4893 59.9207 63.4188 57.6346 54.3737C55.3313 45.3287 51.8248 39.0455 51.8248 39.0455C51.8248 39.0455 41.563 49.1435 28.19 38.1824L19.1315 56.2725Z" fill="#FBE5E7"/>
<path d="M22.4492 67.769C22.6555 71.3939 22.9993 74.7772 23.5149 75.9682C24.8213 78.989 26.2823 79.4723 26.2823 79.4723L37.627 82.2687L42.5602 80.8188C42.5602 80.8188 26.1105 78.3158 27.9325 64.0923L22.4492 67.769Z" fill="#F8CAA4"/>
<path d="M53.4061 81.9233C53.4061 81.9233 59.6457 101.394 60.041 108.04C60.4364 114.669 48.1291 202.254 47.6306 205.309C47.1665 208.192 43.6084 210.021 43.6084 210.021C43.6084 210.021 41.9755 210.988 39.6378 210.332C36.3891 209.417 35.375 208.313 35.375 208.313C35.375 208.313 30.5277 145.843 33.5186 123.541C36.5266 101.222 36.561 81.9406 36.561 81.9406H53.4061V81.9233Z" fill="#1E3865"/>
<path d="M27.0042 81.3538C27.0042 81.3538 17.4987 94.1619 16.6049 102.827C15.7111 111.492 15.2126 141.89 13.3218 150.331C11.431 158.772 4.50391 175.015 4.50391 201.339C4.50391 201.339 5.22584 202.841 7.44321 203.652C8.14795 203.911 9.11053 204.153 10.0387 204.377C11.8779 204.791 13.7515 203.894 14.5938 202.202C19.2864 192.725 34.2235 162.138 34.9798 155.786C35.5299 151.298 40.2396 121.556 50.5186 104.105C52.9938 99.91 49.006 83.2525 49.006 83.2525L27.0042 81.3538Z" fill="#25468F"/>
<path d="M45.1211 25.0982C45.1211 25.0982 45.3445 26.0304 47.6651 25.8923C47.6651 25.8923 49.6074 25.7715 49.5558 24.7358C49.5386 24.7358 47.6479 24.0108 45.1211 25.0982Z" fill="white"/>
<path d="M54.4033 78.9197C54.4033 78.9197 51.8937 80.9048 46.9261 81.0083C40.9959 81.1292 26.2822 79.4893 26.2822 79.4893C26.2822 79.4893 25.629 81.319 25.6634 83.2523C25.6634 83.2523 43.6258 87.8094 54.0423 83.9083C54.0251 83.9255 55.3658 81.3881 54.4033 78.9197Z" fill="#1E3865"/>
<path d="M45.6367 83.0626C45.6367 81.3709 46.8571 79.99 48.3526 79.99C49.848 79.99 51.0684 81.3709 51.0684 83.0626C51.0684 84.7542 49.848 86.1351 48.3526 86.1351C46.8571 86.1524 45.6367 84.7714 45.6367 83.0626ZM46.5477 83.0626C46.5477 84.2709 47.3556 85.2375 48.3526 85.2375C49.3495 85.2375 50.1574 84.2536 50.1574 83.0626C50.1574 81.8542 49.3495 80.8876 48.3526 80.8876C47.3556 80.8876 46.5477 81.8715 46.5477 83.0626Z" fill="white"/>
<path d="M6.93603 82.4324L25.3447 98.5291L47.2885 73.2207L28.8798 57.124L6.93603 82.4324Z" fill="#2C2B27"/>
<path d="M30.4419 82.5103C30.4419 82.5103 37.18 83.3043 37.1628 84.9096C37.1456 86.515 35.4783 89.8119 34.6532 89.9673C33.8281 90.1054 29.1699 85.4965 29.1699 85.4965L30.4419 82.5103Z" fill="#FFAE73"/>
<path d="M28.1729 38.1997C28.1729 38.1997 19.1659 38.8384 15.711 47.262C12.256 55.6857 5.70703 69.8402 5.70703 72.2223C5.70703 74.6044 9.36827 81.9405 29.0152 86.1524C29.0152 86.1524 31.0435 84.0119 30.9231 82.303C30.9231 82.303 18.6675 71.7217 18.6847 70.4961C18.7534 68.1658 20.6958 65.076 31.456 54.253C34.4125 51.3012 28.1729 38.1997 28.1729 38.1997Z" fill="#FBE5E7"/>
</svg>
